<?xml version="1.0" encoding="UTF-8"?>
<svg version="1.1" xmlns="http://www.w3.org/2000/svg" width="4359" height="3074">
<path d="M0 0 C1.91601445 0.00502721 3.83203018 0.00958794 5.74804688 0.01367188 C10.39456353 0.02457576 15.04101721 0.04177243 19.6875 0.0625 C19.6875 1.7125 19.6875 3.3625 19.6875 5.0625 C19.10186279 5.19712646 18.51622559 5.33175293 17.9128418 5.47045898 C-26.75396243 15.86983382 -69.51601347 33.35615967 -106.3125 61.0625 C-106.8895166 61.49530273 -107.4665332 61.92810547 -108.06103516 62.37402344 C-116.96798095 69.09782206 -125.28409939 76.31514025 -133.3125 84.0625 C-134.19518555 84.91231445 -134.19518555 84.91231445 -135.09570312 85.77929688 C-142.70268189 93.14220145 -149.87987093 100.63038587 -156.3125 109.0625 C-156.73063965 109.60422852 -157.1487793 110.14595703 -157.57958984 110.70410156 C-165.26141492 120.69804109 -171.99934358 131.15773821 -178.3125 142.0625 C-178.89596191 143.06240967 -178.89596191 143.06240967 -179.49121094 144.08251953 C-219.11196036 212.79170295 -234.7635489 306.55926298 -214.5625 383.3125 C-206.10975267 413.78510016 -191.27121492 439.76010539 -166.0859375 459.13671875 C-163.55966095 461.08217433 -161.06846337 463.0618254 -158.6015625 465.08203125 C-150.17412056 471.97801578 -141.54062358 478.27807857 -132.3125 484.0625 C-131.20648437 484.76117188 -130.10046875 485.45984375 -128.9609375 486.1796875 C-111.77315019 496.52456183 -91.53350217 504.27721836 -71.3125 505.0625 C-70.39210938 505.1140625 -69.47171875 505.165625 -68.5234375 505.21875 C-39.61960588 506.09684109 -10.49826942 495.45717887 14.6875 482.0625 C15.40164062 481.68609375 16.11578125 481.3096875 16.8515625 480.921875 C40.21535598 468.53823888 61.5390144 452.94220403 81.9140625 436.15234375 C85.5196082 433.18410461 89.18823374 430.30378909 92.875 427.4375 C98.57372387 422.99487723 104.10197738 418.37768352 109.59765625 413.6875 C114.23179412 409.73642452 118.96429375 405.90616491 123.6875 402.0625 C125.43759206 400.62511208 127.18759043 399.18761008 128.9375 397.75 C130.85282857 396.18586003 132.76958952 394.62347301 134.6875 393.0625 C135.22294434 392.62599121 135.75838867 392.18948242 136.31005859 391.73974609 C159.78015414 372.64714326 184.24832531 354.84787628 210.6875 340.0625 C211.30318848 339.7128418 211.91887695 339.36318359 212.55322266 339.00292969 C256.33873327 314.22481257 311.82784854 300.91683546 361.34765625 313.8125 C392.72302128 322.55446376 419.80066752 339.97842599 446.5612793 357.95874023 C457.4417057 365.26582066 468.40482341 372.38685643 479.6875 379.0625 C480.44981934 379.51512207 481.21213867 379.96774414 481.99755859 380.43408203 C510.83705617 397.40895755 543.68933997 409.23320701 577.38232422 400.89428711 C579.49798068 400.32254643 581.59314055 399.70768418 583.6875 399.0625 C584.35120605 398.85882813 585.01491211 398.65515625 585.69873047 398.4453125 C600.60655402 393.6924123 614.08604836 385.64703487 627.6875 378.0625 C623.76873618 386.2969877 616.20442522 392.59539175 609.7890625 398.93359375 C607.3264874 401.42820979 605.046759 404.03967233 602.765625 406.69921875 C599.96904388 409.87954127 597.07757216 412.96724452 594.1875 416.0625 C589.59653527 420.98861869 585.06578077 425.94526888 580.6875 431.0625 C579.79958701 432.09644678 578.91155495 433.13029133 578.0234375 434.1640625 C575.96848118 436.55745036 573.91699804 438.95376678 571.8671875 441.3515625 C569.79779302 443.7707138 567.71972693 446.18188733 565.6328125 448.5859375 C559.21023152 455.99884842 553.04832902 463.56796873 547.04199219 471.32128906 C545.69563408 473.05204357 544.33833893 474.77354525 542.9765625 476.4921875 C490.05272911 543.30686558 446.6774525 617.8544221 388.6875 847.0625 C385.89854014 845.66802007 385.70516478 843.74631463 384.73416138 840.9208374 C384.49188812 840.1928595 384.24961487 839.46488159 384 838.71484375 C383.46613613 837.15579068 382.93211263 835.59679226 382.39794922 834.0378418 C382.11916931 833.21569183 381.8403894 832.39354187 381.55316162 831.54647827 C376.19390435 815.78138962 370.44670083 800.2886009 363.6875 785.0625 C363.03467041 783.58185059 363.03467041 783.58185059 362.36865234 782.07128906 C337.00548808 724.8102266 299.92512345 664.87197679 238.7578125 641.08203125 C190.77628066 623.33187926 137.8776361 627.33171888 91.44580078 648.20288086 C68.25219022 659.00138117 47.51850109 673.82832542 29.20166016 691.61767578 C27.26124308 693.4692379 25.23757078 695.20885523 23.1875 696.9375 C19.98470418 699.69948091 17.24131389 702.70324471 14.51171875 705.9296875 C12.58742651 708.17950241 10.57914215 710.33275252 8.5625 712.5 C2.12626146 719.64531566 -3.57179385 727.35734412 -9.3125 735.0625 C-10.12557617 736.1462793 -10.12557617 736.1462793 -10.95507812 737.25195312 C-19.80833944 749.08826278 -27.75918448 761.36079948 -35.3125 774.0625 C-35.80572754 774.89056152 -36.29895508 775.71862305 -36.80712891 776.57177734 C-55.66369748 808.43591542 -71.60833851 842.10749551 -86.3125 876.0625 C-85.808396 875.79735596 -85.30429199 875.53221191 -84.78491211 875.2590332 C-3.69294082 832.931748 93.44959708 805.63434848 183.52734375 833.3359375 C198.46891426 838.18944094 212.84165899 844.67140565 226.6875 852.0625 C227.33348145 852.40216797 227.97946289 852.74183594 228.64501953 853.09179688 C246.79411478 862.68674066 262.97511056 874.89460633 278.10546875 888.7265625 C279.56004344 890.04250148 281.02259093 891.35012457 282.51098633 892.62768555 C287.2836056 896.72781248 291.71282828 901.02121081 296 905.625 C296.64735107 906.31899902 297.29470215 907.01299805 297.96166992 907.72802734 C303.9400893 914.2124664 309.43805742 920.9795681 314.6875 928.0625 C315.11901367 928.64241699 315.55052734 929.22233398 315.99511719 929.81982422 C318.97395992 933.84603783 321.86446411 937.92567108 324.6875 942.0625 C325.09758301 942.66078613 325.50766602 943.25907227 325.93017578 943.87548828 C327.12067173 945.63311211 328.28352239 947.4057383 329.4375 949.1875 C330.11296875 950.22132813 330.7884375 951.25515625 331.484375 952.3203125 C332.6875 955.0625 332.6875 955.0625 332.2265625 957.03125 C330.02899543 959.93159233 327.71133428 962.70394466 325.3125 965.4375 C324.77939209 966.05326904 324.24628418 966.66903809 323.69702148 967.3034668 C321.5252801 969.81148193 319.34468015 972.311647 317.15966797 974.80810547 C308.90365507 984.24940106 301.20030052 994.0210583 293.6875 1004.0625 C293.20394043 1004.7033252 292.72038086 1005.34415039 292.22216797 1006.00439453 C241.30400332 1073.52592617 226.74945429 1150.09756864 227.6875 1233.0625 C224.96691358 1230.34191358 224.7664877 1227.97163482 223.875 1224.23046875 C223.52426792 1222.79207337 223.17283722 1221.35384819 222.82080078 1219.91577148 C222.63680725 1219.15561737 222.45281372 1218.39546326 222.26324463 1217.61227417 C210.16795099 1167.9854113 189.61786659 1119.96727276 158.6875 1079.0625 C158.25228027 1078.4845166 157.81706055 1077.9065332 157.36865234 1077.31103516 C150.9249923 1068.80373444 144.07659322 1060.76563538 136.6875 1053.0625 C135.81182373 1052.13800049 135.81182373 1052.13800049 134.91845703 1051.19482422 C111.97654923 1027.0751882 84.16847081 1008.44049597 51.6875 1000.0625 C50.45902344 999.7428125 49.23054688 999.423125 47.96484375 999.09375 C8.7790607 990.62114826 -34.26271139 1001.3594475 -67.65625 1022.7421875 C-74.72934706 1027.54383531 -81.13932424 1033.16321941 -87.3125 1039.0625 C-88.04726562 1039.7225 -88.78203125 1040.3825 -89.5390625 1041.0625 C-110.50472353 1060.62057248 -121.57006514 1089.61596253 -127.3125 1117.0625 C-127.47911133 1117.84109375 -127.64572266 1118.6196875 -127.81738281 1119.421875 C-133.38862652 1146.92051891 -132.18502229 1178.56823793 -127.3125 1206.0625 C-127.14621094 1207.0313916 -126.97992187 1208.0002832 -126.80859375 1208.99853516 C-122.73097539 1232.1163659 -115.70507498 1254.5624486 -106.3125 1276.0625 C-105.97669922 1276.83577637 -105.64089844 1277.60905273 -105.29492188 1278.40576172 C-91.9906981 1308.6558303 -72.87031259 1336.39248472 -50.5078125 1360.65625 C-48.6713622 1362.66915638 -46.89052679 1364.71269645 -45.11328125 1366.77734375 C-41.05875153 1371.42176101 -36.74407658 1375.77804533 -32.375 1380.125 C-31.61509766 1380.88876953 -30.85519531 1381.65253906 -30.07226562 1382.43945312 C-25.31584593 1387.18774913 -20.42312027 1391.6994094 -15.3125 1396.0625 C-14.30321783 1396.93991143 -13.29409041 1397.81750092 -12.28515625 1398.6953125 C-3.55601344 1406.17073949 5.47566796 1413.19279711 14.6875 1420.0625 C15.39503418 1420.59101562 16.10256836 1421.11953125 16.83154297 1421.6640625 C68.32575208 1459.9458641 126.32860049 1488.6252841 185.83743286 1512.12362671 C199.97651158 1517.70801165 213.86128817 1523.73766642 227.6875 1530.0625 C229.24334905 1530.7633329 230.79932544 1531.46388323 232.35546875 1532.1640625 C243.16680962 1537.08193761 253.55925612 1542.73692548 263.92626953 1548.52441406 C266.54714588 1549.98431866 269.17705257 1551.42662584 271.80859375 1552.8671875 C297.16407192 1566.8937264 321.88595245 1583.52622205 343.765625 1602.54296875 C346.60674317 1604.99286343 349.50790522 1607.34463345 352.4375 1609.6875 C356.77009148 1613.20890962 360.70352001 1616.96893606 364.59375 1620.96875 C366.45288285 1622.82788285 368.35436456 1624.50934514 370.375 1626.1875 C377.02213621 1631.91142284 382.8084465 1638.57091182 388.6875 1645.0625 C389.23599609 1645.66626465 389.78449219 1646.2700293 390.34960938 1646.89208984 C407.77075315 1666.18584743 422.74560882 1687.54309881 435.6875 1710.0625 C436.36401611 1711.23498291 436.36401611 1711.23498291 437.05419922 1712.43115234 C461.97565788 1755.95298178 476.82849285 1803.6574685 484.6875 1853.0625 C485.55246094 1852.918125 486.41742187 1852.77375 487.30859375 1852.625 C512.38791672 1848.92855936 537.44578784 1850.72668234 561.6875 1858.0625 C561.91771851 1857.0578772 561.91771851 1857.0578772 562.15258789 1856.03295898 C564.33344609 1846.89664156 567.15251034 1838.02714384 570.125 1829.125 C570.38594452 1828.34170319 570.64688904 1827.55840637 570.91574097 1826.75137329 C576.12189435 1811.19554532 582.02349684 1796.05763052 588.6875 1781.0625 C589.37344238 1779.51900879 589.37344238 1779.51900879 590.07324219 1777.94433594 C605.21012379 1744.30318871 625.95806962 1710.70129038 655.6875 1688.0625 C656.5846875 1687.33804687 657.481875 1686.61359375 658.40625 1685.8671875 C692.03146792 1659.35499645 737.22730554 1649.99067926 779.25610352 1654.88305664 C826.50923102 1661.20225325 868.14662438 1685.76590955 897.6875 1723.0625 C898.45835938 1724.00480469 899.22921875 1724.94710938 900.0234375 1725.91796875 C923.84318368 1755.71192312 939.03080636 1791.86525511 946.6875 1829.0625 C946.89777832 1830.06361816 947.10805664 1831.06473633 947.32470703 1832.09619141 C953.6134334 1863.49998967 953.43834454 1898.7656513 946.6875 1930.0625 C946.50558105 1930.94325195 946.32366211 1931.82400391 946.13623047 1932.73144531 C939.20910607 1965.55326264 924.97417577 1996.35957329 904.6875 2023.0625 C904.3575 2023.0625 904.0275 2023.0625 903.6875 2023.0625 C903.61262834 2018.49532859 903.64848716 2014.07615625 904.17578125 2009.5390625 C906.34415394 1986.44908494 906.7194162 1960.74838923 901.6875 1938.0625 C901.37353271 1936.64251709 901.37353271 1936.64251709 901.05322266 1935.19384766 C893.27101474 1901.15150715 877.51127624 1868.02344996 847.4284668 1848.39575195 C831.70804574 1838.67542983 813.49683949 1834.3114881 795.17578125 1837.71484375 C781.68851753 1841.8227293 772.63331086 1849.58967367 765.9375 1861.8125 C757.10040483 1880.71163422 760.3382415 1900.71959976 767.1496582 1919.65332031 C770.0793185 1927.42225397 773.75470096 1934.76001132 777.6875 1942.0625 C778.04215332 1942.72636719 778.39680664 1943.39023438 778.76220703 1944.07421875 C784.1691888 1954.13417224 790.17504428 1963.68497416 796.6875 1973.0625 C797.26056885 1973.89201172 797.26056885 1973.89201172 797.84521484 1974.73828125 C808.27223461 1989.77112868 819.58330762 2004.19664072 830.91796875 2018.55078125 C836.55226479 2025.68673341 842.13392352 2032.86359533 847.6875 2040.0625 C848.21520996 2040.74602539 848.74291992 2041.42955078 849.28662109 2042.13378906 C874.46519548 2074.86833448 892.65094795 2110.28674932 892.890625 2152.70703125 C892.89632507 2153.51629562 892.90202515 2154.32556 892.90789795 2155.15934753 C892.91729274 2156.86785602 892.92385979 2158.57638218 892.92773438 2160.28491211 C892.93733132 2162.83026203 892.96836164 2165.37476449 893 2167.91992188 C893.09779961 2182.93430044 891.54492287 2197.81167678 887 2212.1875 C886.74653809 2213.00605469 886.49307617 2213.82460937 886.23193359 2214.66796875 C876.1785017 2245.88366371 854.78559802 2271.45871268 825.76171875 2286.703125 C790.89425721 2304.31847418 752.10661146 2309.16246786 714.6875 2297.0625 C694.99674575 2290.2375023 677.13025076 2279.34100395 661.90234375 2265.125 C659.94259817 2263.30005173 657.93302638 2261.58645645 655.875 2259.875 C630.53104622 2237.6354261 611.36739854 2206.54738203 596.875 2176.4375 C596.53114258 2175.73294678 596.18728516 2175.02839355 595.83300781 2174.30249023 C593.56534766 2169.42895701 593.56534766 2169.42895701 594.6875 2166.0625 C595.16356689 2166.35382812 595.63963379 2166.64515625 596.13012695 2166.9453125 C635.00390404 2190.55072816 679.46418423 2200.21198485 724.3125 2189.875 C747.84842334 2184.11026353 770.60111309 2172.53073581 783.73193359 2151.40673828 C796.09831151 2130.36260425 796.75370986 2106.66749702 790.9375 2083.5 C776.84898574 2034.68045974 740.64621432 2001.93391962 697.4296875 1977.6484375 C681.27462683 1967.82573614 681.27462683 1967.82573614 663.6875 1963.0625 C664.08582031 1964.60744141 664.08582031 1964.60744141 664.4921875 1966.18359375 C674.03679145 2004.20413566 670.78516085 2043.06495252 651.26171875 2077.5 C642.67088642 2091.48408439 631.85498897 2104.25367488 618.6875 2114.0625 C617.41519531 2115.05636719 617.41519531 2115.05636719 616.1171875 2116.0703125 C590.06549368 2135.90070631 556.4685269 2146.97824265 523.7890625 2147.30078125 C522.55139633 2147.31506416 522.55139633 2147.31506416 521.28872681 2147.32963562 C518.6299489 2147.3540165 515.97137456 2147.36662107 513.3125 2147.375 C511.95288147 2147.38092163 511.95288147 2147.38092163 510.5657959 2147.38696289 C495.74607013 2147.41704839 481.64734283 2146.32142259 467.08300781 2143.4296875 C463.39385724 2142.86299465 463.39385724 2142.86299465 459.6875 2143.0625 C457.94168389 2144.89558918 457.94168389 2144.89558918 456.6640625 2147.46875 C456.12563721 2148.42845703 455.58721191 2149.38816406 455.0324707 2150.37695312 C454.46488037 2151.42818359 453.89729004 2152.47941406 453.3125 2153.5625 C452.07232362 2155.77269569 450.82872976 2157.98097665 449.58203125 2160.1875 C448.94217285 2161.32703125 448.30231445 2162.4665625 447.64306641 2163.640625 C439.10465334 2178.58124892 429.6601639 2193.04270452 419.6875 2207.0625 C419.19072754 2207.76503906 418.69395508 2208.46757812 418.18212891 2209.19140625 C407.47363121 2224.30928535 396.29334888 2239.04499604 384.21484375 2253.09765625 C381.73654625 2256.00496352 379.33225204 2258.96122301 376.9375 2261.9375 C373.94550249 2265.61627274 370.85587483 2269.02673153 367.4387207 2272.31030273 C365.82671624 2273.92320613 364.37322354 2275.58086835 362.91015625 2277.328125 C357.50771304 2283.54278875 351.61027777 2289.28843392 345.78149414 2295.09887695 C343.7548702 2297.12014268 341.73364453 2299.14669574 339.71289062 2301.17382812 C333.54149486 2307.34874182 327.37857051 2313.44562642 320.6875 2319.0625 C319.49516551 2320.10683407 318.3050722 2321.15373225 317.1171875 2322.203125 C309.51219128 2328.8704754 301.78358611 2335.31037872 293.76171875 2341.46972656 C292.24667604 2342.63311388 290.73397629 2343.79955418 289.22265625 2344.96777344 C279.24811337 2352.67570764 269.31079898 2360.26777002 258.6875 2367.0625 C257.22151461 2368.02952152 255.75678213 2368.99844377 254.29296875 2369.96875 C178.97659998 2419.7220568 94.19174637 2451.86084817 -119.3125 2485.0625 C-118.63598389 2485.43834229 -117.95946777 2485.81418457 -117.26245117 2486.20141602 C-85.45703125 2503.87109375 -85.45703125 2503.87109375 -82.12866211 2505.72021484 C-79.8990378 2506.95887677 -77.66938234 2508.19748262 -75.43969727 2509.43603516 C-69.83668029 2512.54850806 -64.23418763 2515.66191693 -58.6328125 2518.77734375 C-44.04602759 2526.88880622 -29.44152775 2534.96745847 -14.82395935 2543.02325439 C-10.50706625 2545.40274223 -6.19253956 2547.78648372 -1.87890625 2550.171875 C0.58057646 2551.53152645 3.04021895 2552.89088837 5.5 2554.25 C6.40600952 2554.75061951 6.40600952 2554.75061951 7.33032227 2555.26135254 C16.53607322 2560.3458166 25.7767334 2565.36317216 35.03491211 2570.3515625 C41.59533506 2573.89791413 48.08844308 2577.54881448 54.5625 2581.25 C65.69161625 2587.60457888 77.00963216 2593.58659192 88.36083984 2599.53198242 C89.73946782 2600.25529649 91.11788801 2600.97900674 92.49609375 2601.703125 C93.16717163 2602.05570877 93.83824951 2602.40829254 94.52966309 2602.77156067 C100.27624386 2605.80875925 105.94127434 2608.98316423 111.57774353 2612.2197876 C114.26224594 2613.7520141 116.74606848 2615.08202283 119.6875 2616.0625 C119.88601562 2615.28390625 120.08453125 2614.5053125 120.2890625 2613.703125 C122.2355991 2608.63560515 125.1100975 2604.35051029 128.0625 2599.8125 C128.68882324 2598.84030518 129.31514648 2597.86811035 129.96044922 2596.86645508 C131.86035542 2593.92575787 133.77135179 2590.99263516 135.6875 2588.0625 C136.22826172 2587.23476074 136.76902344 2586.40702148 137.32617188 2585.55419922 C147.27901318 2570.368192 157.66520139 2555.49275312 168.6875 2541.0625 C169.28643066 2540.27431885 169.28643066 2540.27431885 169.89746094 2539.47021484 C182.10476821 2523.40821921 195.03501434 2507.91775488 208.6875 2493.0625 C209.22745605 2492.47210937 209.76741211 2491.88171875 210.32373047 2491.2734375 C218.74106898 2482.09005487 227.35587699 2473.31566447 236.6875 2465.0625 C237.22665039 2464.57861816 237.76580078 2464.09473633 238.32128906 2463.59619141 C278.99520294 2427.15764378 325.81751589 2408.69886992 380.6875 2411.0625 C422.15059023 2413.43181944 460.54471106 2429.42434279 490.6875 2458.0625 C492.05681218 2459.23583723 493.43141787 2460.40303966 494.8125 2461.5625 C511.42510384 2476.16551467 523.42749834 2495.70628291 533.6875 2515.0625 C534.06068359 2515.75424316 534.43386719 2516.44598633 534.81835938 2517.15869141 C549.40591122 2544.54798316 556.58111227 2576.43260336 559.6875 2607.0625 C559.76484375 2607.80822266 559.8421875 2608.55394531 559.921875 2609.32226562 C562.14271313 2632.27804435 560.62197157 2656.38934312 556.6875 2679.0625 C556.5332959 2679.96242676 556.3790918 2680.86235352 556.22021484 2681.78955078 C550.22570362 2715.39586842 537.05820907 2748.31908447 518.6875 2777.0625 C517.6975 2776.5675 517.6975 2776.5675 516.6875 2776.0625 C516.7486499 2775.13860474 516.7486499 2775.13860474 516.81103516 2774.19604492 C520.22371164 2719.49758576 508.63227062 2658.70536194 471.63354492 2616.28833008 C453.36678878 2595.97796649 430.56058742 2585.80172081 403.50878906 2583.91015625 C379.27960561 2582.78059059 353.5621052 2589.5474322 335.07421875 2605.796875 C321.81175349 2618.38644923 312.69318478 2634.25452235 311.51049805 2652.84472656 C311.20546069 2667.07332175 311.34487119 2680.42141831 315.6875 2694.0625 C315.89117188 2694.70687012 316.09484375 2695.35124023 316.3046875 2696.01513672 C324.74876048 2721.61449068 344.87662345 2743.28197236 365.6875 2759.6953125 C368.78282603 2762.1377182 371.81677375 2764.64394199 374.84960938 2767.16308594 C380.67853623 2772.00166114 386.53594441 2776.78416388 392.5625 2781.375 C398.38256942 2785.81036889 404.06817926 2790.37587859 409.6875 2795.0625 C410.19297363 2795.47628906 410.69844727 2795.89007812 411.21923828 2796.31640625 C446.49760453 2825.22072344 469.08478748 2856.92725709 474.28125 2902.89453125 C477.70406293 2940.29206776 470.81144078 2977.78756587 447.6875 3008.0625 C445.40760301 3010.79113862 443.07172928 3013.41698017 440.62890625 3016 C438.53408539 3018.15978338 438.53408539 3018.15978338 436.3125 3021.125 C432.24093437 3025.68127582 427.48676318 3029.30057756 422.6875 3033.0625 C421.78 3033.79726562 420.8725 3034.53203125 419.9375 3035.2890625 C388.24024407 3060.20662757 344.5821245 3073.0672027 304.5546875 3073.265625 C303.13502937 3073.27614647 303.13502937 3073.27614647 301.68669128 3073.28688049 C298.6452454 3073.30431056 295.60399401 3073.31073366 292.5625 3073.3125 C291.00666702 3073.31351212 291.00666702 3073.31351212 289.41940308 3073.31454468 C274.59871212 3073.29919121 260.26660283 3072.94511468 245.6875 3070.0625 C244.79337402 3069.90152832 243.89924805 3069.74055664 242.97802734 3069.57470703 C200.86386335 3061.95683653 162.30463608 3043.92214552 130.6875 3015.0625 C129.86894531 3014.31613281 129.05039063 3013.56976562 128.20703125 3012.80078125 C118.75056318 3003.74600386 110.99087257 2992.88046482 103.6875 2982.0625 C103.16655762 2982.27342285 102.64561523 2982.4843457 102.10888672 2982.70166016 C59.17699935 2999.93613378 11.93250761 3007.63770036 -32.125 2989.3125 C-50.43083151 2981.330416 -65.8252532 2970.80456315 -80.3125 2957.0625 C-80.80186035 2956.60568848 -81.2912207 2956.14887695 -81.79541016 2955.67822266 C-91.09636899 2946.95078916 -98.88398063 2937.41511482 -106.3125 2927.0625 C-106.7569043 2926.44681152 -107.20130859 2925.83112305 -107.65917969 2925.19677734 C-125.05322557 2900.84377613 -136.79509494 2873.27480784 -146.3125 2845.0625 C-146.62960938 2844.12599609 -146.94671875 2843.18949219 -147.2734375 2842.22460938 C-155.66720868 2817.06123124 -164.3125 2786.7134125 -164.3125 2760.0625 C-164.85713898 2759.89102951 -165.40177795 2759.71955902 -165.96292114 2759.54289246 C-171.58824241 2757.72628301 -176.97130505 2755.58300091 -182.3671875 2753.17578125 C-183.63665977 2752.61504662 -183.63665977 2752.61504662 -184.93177795 2752.04298401 C-187.68569252 2750.8247946 -190.43672861 2749.60026871 -193.1875 2748.375 C-195.12179354 2747.51636528 -197.05612014 2746.65780504 -198.99047852 2745.79931641 C-261.84139111 2717.86644843 -324.52791783 2688.82952889 -384.71826172 2655.48828125 C-387.51211204 2653.95279415 -390.31863851 2652.4427199 -393.12890625 2650.9375 C-405.41306927 2644.35378542 -417.51682964 2637.52337304 -429.52734375 2630.453125 C-434.00633509 2627.81816209 -438.5115388 2625.23524513 -443.03564453 2622.67871094 C-489.77979212 2596.24907309 -534.97317945 2566.69317364 -578.86523438 2535.78515625 C-581.18273591 2534.15384232 -583.50472047 2532.52914087 -585.828125 2530.90625 C-601.04236491 2520.25628206 -615.92712563 2509.17475263 -630.67553711 2497.89038086 C-635.31417728 2494.34151315 -639.9687342 2490.81790984 -644.65795898 2487.33618164 C-652.07726385 2481.82488219 -659.27891057 2476.08967049 -666.42578125 2470.23046875 C-670.11962152 2467.20672958 -673.86258006 2464.25022318 -677.625 2461.3125 C-682.6966689 2457.34846143 -687.71062113 2453.32306715 -692.6796875 2449.23046875 C-694.42979526 2447.78935627 -696.18499612 2446.35440597 -697.9453125 2444.92578125 C-703.75054506 2440.21220321 -709.45157084 2435.39227666 -715.11376953 2430.5090332 C-718.69677053 2427.42560885 -722.32166721 2424.40745201 -726 2421.4375 C-730.68844687 2417.63457237 -735.13019663 2413.61136288 -739.5703125 2409.5234375 C-742.21265883 2407.15210105 -744.91944167 2404.90997003 -747.6875 2402.6875 C-753.1242971 2398.30072809 -758.21621523 2393.60260118 -763.3203125 2388.83984375 C-766.23087875 2386.1260354 -769.21261992 2383.50510244 -772.22265625 2380.90234375 C-775.93518995 2377.63392623 -779.55466525 2374.26267341 -783.1875 2370.90625 C-785.49907733 2368.78454148 -787.85046909 2366.71442623 -790.21875 2364.65625 C-794.16852083 2361.21237961 -798.00262421 2357.6598414 -801.8125 2354.0625 C-803.05200422 2352.89574929 -804.2915927 2351.72908807 -805.53125 2350.5625 C-806.60548218 2349.54845093 -806.60548218 2349.54845093 -807.70141602 2348.51391602 C-809.68980862 2346.64711376 -811.68544523 2344.78956974 -813.68725586 2342.93725586 C-824.09696336 2333.27974042 -834.19683796 2323.33274415 -844.22485352 2313.28051758 C-846.89940335 2310.60054719 -849.57933976 2307.92604516 -852.25976562 2305.25195312 C-853.98730033 2303.52375848 -855.71452526 2301.79525411 -857.44140625 2300.06640625 C-858.23003555 2299.27980118 -859.01866486 2298.49319611 -859.83119202 2297.68275452 C-863.98872961 2293.50771198 -867.97920853 2289.24825358 -871.82463074 2284.78395081 C-873.55392394 2282.78317476 -875.34825612 2280.85668244 -877.1796875 2278.94921875 C-877.83308105 2278.26424316 -878.48647461 2277.57926758 -879.15966797 2276.87353516 C-879.82885254 2276.17276855 -880.49803711 2275.47200195 -881.1875 2274.75 C-886.45786542 2269.19494558 -891.4880028 2263.58743492 -896.25 2257.58984375 C-898.46547804 2254.87504395 -900.80290467 2252.31716591 -903.1875 2249.75 C-907.45404 2245.11360514 -911.36369842 2240.29020177 -915.21533203 2235.31176758 C-918.08182445 2231.61042807 -921.02567418 2228.00225084 -924.0625 2224.4375 C-980.2030505 2157.51439932 -1023.91991427 2076.07114541 -1058.3125 1962.0625 C-1058.49447937 1961.37583252 -1058.67645874 1960.68916504 -1058.86395264 1959.98168945 C-1071.20670993 1913.19127959 -1078.14640768 1865.3152023 -1081.3125 1817.0625 C-1081.36055786 1816.36051483 -1081.40861572 1815.65852966 -1081.45812988 1814.93527222 C-1082.6115175 1797.60447774 -1082.55953882 1780.2360953 -1082.5625 1762.875 C-1082.56279457 1762.08074112 -1082.56308914 1761.28648224 -1082.56339264 1760.46815491 C-1082.56657355 1707.17318037 -1077.43047028 1654.64857739 -1071.78082275 1601.69502258 C-1070.98225301 1594.20973914 -1070.18502238 1586.7243138 -1069.38951111 1579.23870468 C-1069.21343733 1577.58207994 -1069.03725966 1575.92546623 -1068.86097717 1574.26886368 C-1066.26806949 1549.89395764 -1063.81548101 1525.53379212 -1062.3125 1501.0625 C-1062.22058559 1499.73190793 -1062.12829011 1498.40134214 -1062.03564453 1497.07080078 C-1059.66187832 1461.29085913 -1059.91842816 1424.67517689 -1064.3125 1389.0625 C-1064.40960266 1388.26058228 -1064.50670532 1387.45866455 -1064.60675049 1386.63244629 C-1071.5287357 1329.73847698 -1084.85189282 1274.5140081 -1108.3125 1222.0625 C-1108.97354736 1220.58354248 -1108.97354736 1220.58354248 -1109.64794922 1219.07470703 C-1121.52476086 1192.78894926 -1136.48209359 1167.75839312 -1154.3125 1145.0625 C-1154.78236328 1144.46260254 -1155.25222656 1143.86270508 -1155.73632812 1143.24462891 C-1163.7699565 1133.03330242 -1172.29008596 1123.40781582 -1181.3125 1114.0625 C-1181.81023926 1113.54284668 -1182.30797852 1113.02319336 -1182.82080078 1112.48779297 C-1188.41975503 1106.65992065 -1194.21568292 1101.30375992 -1200.546875 1096.28125 C-1202.34038524 1094.84238868 -1204.10367435 1093.36469405 -1205.828125 1091.84375 C-1254.96884632 1048.73785411 -1321.38011238 1028.21786221 -1385.3125 1022.0625 C-1386.60929687 1021.93101562 -1387.90609375 1021.79953125 -1389.2421875 1021.6640625 C-1457.2530039 1015.95793958 -1524.5443672 1036.45841634 -1576.8125 1080.4375 C-1589.26432377 1090.97467167 -1589.26432377 1090.97467167 -1600.43359375 1102.81640625 C-1601.89275185 1104.56072207 -1603.39349487 1106.27028826 -1604.91015625 1107.96484375 C-1654.74013689 1163.85772396 -1674.98685707 1240.0834458 -1670.84790039 1313.7590332 C-1665.81218896 1391.21412145 -1642.69858784 1465.88059846 -1610.3125 1536.0625 C-1609.53302002 1537.7635791 -1609.53302002 1537.7635791 -1608.73779297 1539.49902344 C-1590.79058812 1578.62403841 -1571.9851404 1617.54160441 -1551.72265625 1655.5234375 C-1549.3117559 1660.04374835 -1546.9607671 1664.59429264 -1544.60791016 1669.14501953 C-1539.88324443 1678.28084643 -1535.08742808 1687.36596363 -1530.125 1696.375 C-1525.88092838 1704.08483304 -1521.84034719 1711.86846516 -1517.94921875 1719.76196289 C-1515.65133866 1724.41581041 -1513.28608562 1729.01874899 -1510.82202148 1733.58666992 C-1490.72031759 1770.96526148 -1474.79830741 1810.53501529 -1462.3125 1851.0625 C-1462.11483032 1851.70407043 -1461.91716064 1852.34564087 -1461.71350098 1853.00665283 C-1447.70707549 1898.75097927 -1441.490371 1946.32408106 -1440.3125 1994.0625 C-1440.28913574 1994.98305176 -1440.26577148 1995.90360352 -1440.24169922 1996.85205078 C-1438.1446846 2094.81259099 -1460.86155542 2192.58043336 -1556.3125 2337.0625 C-1556.73208984 2337.56700684 -1557.15167969 2338.07151367 -1557.58398438 2338.59130859 C-1563.41796725 2345.602734 -1569.39570944 2352.44824707 -1575.6015625 2359.1328125 C-1577.3193159 2360.98917424 -1579.02417154 2362.85762488 -1580.7109375 2364.7421875 C-1586.9295908 2371.6670601 -1593.42897517 2378.2851878 -1600 2384.875 C-1601.33683838 2386.21872681 -1601.33683838 2386.21872681 -1602.70068359 2387.58959961 C-1607.17505212 2392.05355875 -1611.70489234 2396.37900238 -1616.50073242 2400.49584961 C-1619.28076761 2402.899769 -1621.94485561 2405.42356939 -1624.625 2407.9375 C-1629.4189914 2412.39754356 -1634.33760996 2416.62559553 -1639.4453125 2420.7265625 C-1642.72828664 2423.40124715 -1645.92510587 2426.16461132 -1649.125 2428.9375 C-1655.47381653 2434.41685385 -1661.9946388 2439.63949611 -1668.63183594 2444.76416016 C-1670.22945977 2445.9983501 -1671.8219086 2447.23923038 -1673.4140625 2448.48046875 C-1729.56604006 2492.0515602 -1790.2660066 2529.57566811 -1851.21069336 2565.98364258 C-1885.65417607 2586.57107106 -1919.46485126 2608.31710564 -1950.3125 2634.0625 C-1950.91400879 2634.55959473 -1951.51551758 2635.05668945 -1952.13525391 2635.56884766 C-1973.99155878 2653.65826279 -2001.6626578 2679.21379051 -2005.3125 2709.0625 C-2006.45986811 2721.71885282 -2003.0049381 2732.04309938 -1995.3125 2742.0625 C-1994.36697266 2743.30773438 -1994.36697266 2743.30773438 -1993.40234375 2744.578125 C-1972.58803451 2769.32186459 -1934.57992089 2777.21412784 -1904.3125 2781.0625 C-1903.50675537 2781.1670752 -1902.70101074 2781.27165039 -1901.87084961 2781.37939453 C-1892.00437219 2782.46691516 -1882.03834161 2782.30645971 -1872.125 2782.3125 C-1871.12928986 2782.31317474 -1870.13357971 2782.31384949 -1869.10769653 2782.31454468 C-1775.18115379 2782.21394771 -1685.93592286 2745.46677572 -1601.3125 2708.0625 C-1600.58846985 2707.74303406 -1599.8644397 2707.42356812 -1599.11846924 2707.09442139 C-1585.53438825 2701.09991075 -1572.02416913 2694.95211316 -1558.5625 2688.6875 C-1554.44367779 2686.77154497 -1550.32470462 2684.8559181 -1546.20495605 2682.94195557 C-1544.9132157 2682.3416625 -1543.6216374 2681.74102065 -1542.3302002 2681.14007568 C-1523.57167062 2672.41417134 -1504.80774815 2664.04317327 -1485.3125 2657.0625 C-1484.24966797 2656.67900391 -1483.18683594 2656.29550781 -1482.09179688 2655.90039062 C-1456.62813414 2646.80295995 -1430.14481281 2639.68067911 -1403.3125 2636.0625 C-1402.03407227 2635.88734863 -1400.75564453 2635.71219727 -1399.43847656 2635.53173828 C-1387.2312002 2633.96215422 -1375.10998469 2633.66245756 -1362.8125 2633.6875 C-1361.8032547 2633.68804382 -1360.7940094 2633.68858765 -1359.75418091 2633.68914795 C-1343.96021709 2633.72819514 -1328.74944821 2634.42343471 -1313.3125 2638.0625 C-1312.3937207 2638.27680664 -1311.47494141 2638.49111328 -1310.52832031 2638.71191406 C-1263.93935335 2649.99376824 -1227.36064329 2678.78157213 -1202.37255859 2719.29516602 C-1176.60409058 2762.25437913 -1166.02403354 2815.5509503 -1178.22460938 2864.53320312 C-1183.60346294 2884.96058717 -1192.57585933 2903.91863452 -1206.3125 2920.0625 C-1207.05242188 2920.95324219 -1207.79234375 2921.84398438 -1208.5546875 2922.76171875 C-1223.85114946 2940.53500997 -1244.97359393 2952.48908198 -1267.1875 2959.375 C-1267.91598145 2959.60533936 -1268.64446289 2959.83567871 -1269.39501953 2960.07299805 C-1283.83338456 2964.27737342 -1298.61296047 2965.55102957 -1313.58447266 2965.39868164 C-1316.0761723 2965.37486934 -1318.566807 2965.37818649 -1321.05859375 2965.38476562 C-1330.97281147 2965.36609133 -1340.5226197 2964.66569843 -1350.3125 2963.0625 C-1347.42731223 2961.13904149 -1346.06375767 2960.66131892 -1342.76953125 2960.0546875 C-1320.36525793 2955.63872051 -1300.70386151 2946.42854439 -1286.8125 2927.5 C-1268.38270872 2899.91828504 -1262.78792178 2868.87576986 -1269.01953125 2836.375 C-1274.67995176 2812.38929118 -1288.71015188 2790.32311715 -1309.84960938 2777.20336914 C-1325.58831229 2767.82933317 -1342.81043094 2761.46873305 -1361.3125 2761.0625 C-1360.755625 2761.8875 -1360.19875 2762.7125 -1359.625 2763.5625 C-1338.6025804 2795.16804454 -1329.59328894 2832.14040485 -1336.8359375 2869.88916016 C-1337.28690125 2871.95953869 -1337.78706814 2874.00979384 -1338.3125 2876.0625 C-1338.60253906 2877.21903076 -1338.60253906 2877.21903076 -1338.8984375 2878.39892578 C-1349.87226343 2920.86322904 -1375.29865632 2957.83914094 -1410.3125 2984.0625 C-1411.57707031 2985.01962891 -1411.57707031 2985.01962891 -1412.8671875 2985.99609375 C-1439.78109556 3005.61515467 -1473.4726502 3017.07089213 -1506.88818359 3012.29125977 C-1527.98284252 3008.75759956 -1545.23251953 2998.9718442 -1560.3125 2984.0625 C-1561.15167969 2983.29550781 -1561.99085937 2982.52851563 -1562.85546875 2981.73828125 C-1578.97726096 2966.64172225 -1590.24509934 2945.78597442 -1597.3125 2925.0625 C-1592.02329226 2925.59346294 -1587.70629533 2926.94569659 -1582.875 2929.1875 C-1582.18470703 2929.4966333 -1581.49441406 2929.8057666 -1580.78320312 2930.12426758 C-1577.93693603 2931.39999133 -1575.10051954 2932.69556248 -1572.27294922 2934.01220703 C-1552.29560239 2943.31411332 -1532.77674135 2947.78054032 -1511.3125 2940.0625 C-1490.17357459 2931.1081462 -1476.14371472 2913.68183539 -1467.43701172 2892.98095703 C-1458.15100757 2869.59735351 -1456.28441151 2844.42643178 -1465.59375 2820.8125 C-1471.1207575 2808.77590589 -1480.50984529 2798.34038565 -1493.0703125 2793.55859375 C-1512.37575166 2786.73727566 -1531.91329922 2787.16070556 -1550.51196289 2795.74707031 C-1588.65046414 2814.40083423 -1612.06657271 2854.65189963 -1634.875 2888.625 C-1649.10133889 2909.79516919 -1649.10133889 2909.79516919 -1655.40234375 2918.984375 C-1655.82955215 2919.60901138 -1656.25676056 2920.23364777 -1656.69691467 2920.87721252 C-1660.99501666 2927.1247511 -1665.56028876 2933.15380147 -1670.3125 2939.0625 C-1670.73998535 2939.59439941 -1671.1674707 2940.12629883 -1671.60791016 2940.67431641 C-1691.67120583 2965.43564945 -1713.38443371 2982.91827176 -1746 2986.5625 C-1747.59376465 2986.74304932 -1747.59376465 2986.74304932 -1749.21972656 2986.92724609 C-1779.42533989 2990.1039725 -1809.95934554 2991.35725708 -1840.3125 2992.0625 C-1841.13999314 2992.08173863 -1841.96748629 2992.10097726 -1842.82005498 2992.12079889 C-1875.45536796 2992.8718733 -1908.08067523 2993.24663858 -1940.72409797 2993.33981514 C-1945.70335271 2993.35470192 -1950.68259452 2993.37274817 -1955.6618392 2993.39064655 C-2001.97352593 2993.55623135 -2048.28553315 2993.64373186 -2094.59745586 2993.71124355 C-2101.43980828 2993.72124914 -2108.28216011 2993.73164536 -2115.12451172 2993.7421875 C-2115.88024652 2993.74334296 -2116.63598131 2993.74449843 -2117.41461716 2993.7456889 C-2142.03796321 2993.78360461 -2166.6610067 2993.85989618 -2191.28418769 2993.9563025 C-2216.70904365 2994.05566503 -2242.13373452 2994.11923111 -2267.55878535 2994.1366569 C-2271.14537518 2994.13912568 -2274.73196459 2994.14199002 -2278.31855392 2994.1450882 C-2279.37699491 2994.14598092 -2279.37699491 2994.14598092 -2280.45681854 2994.14689169 C-2291.79176491 2994.15747591 -2303.12625426 2994.20551654 -2314.4610225 2994.26761358 C-2325.82408078 2994.32903227 -2337.18650952 2994.34941501 -2348.54977293 2994.33052835 C-2354.70049046 2994.32148378 -2360.84981727 2994.33040378 -2367.00030899 2994.38721848 C-2372.62849213 2994.43881048 -2378.25431677 2994.43972548 -2383.88257639 2994.40017512 C-2385.91825124 2994.39482821 -2387.95407776 2994.40812327 -2389.9894795 2994.44189379 C-2405.21214962 2994.67947551 -2405.21214962 2994.67947551 -2410.45923114 2990.6399579 C-2412.74015785 2987.88240634 -2414.53849752 2985.16191011 -2416.3125 2982.0625 C-2417.23088803 2980.93958552 -2418.18016677 2979.84020379 -2419.17578125 2978.78515625 C-2419.98402344 2977.90730469 -2420.79226563 2977.02945313 -2421.625 2976.125 C-2430.65011876 2966.37292911 -2439.87100012 2957.31308755 -2450.3125 2949.0625 C-2451.40952417 2948.1547217 -2452.50447946 2947.24443903 -2453.59765625 2946.33203125 C-2469.58290112 2933.0926908 -2487.14167622 2922.04037114 -2505.3125 2912.0625 C-2506.19631348 2911.57539551 -2507.08012695 2911.08829102 -2507.99072266 2910.58642578 C-2522.37096329 2902.72037604 -2537.03257638 2895.98656735 -2552.3125 2890.0625 C-2553.30975098 2889.67465332 -2554.30700195 2889.28680664 -2555.33447266 2888.88720703 C-2572.01953399 2882.47194485 -2589.00119998 2877.48762209 -2606.3125 2873.0625 C-2607.27188477 2872.81516113 -2608.23126953 2872.56782227 -2609.21972656 2872.31298828 C-2634.76667418 2865.8267118 -2661.12574 2862.66755058 -2687.3125 2860.0625 C-2688.8988851 2828.11446671 -2675.21871183 2797.19208268 -2654.18359375 2773.46875 C-2649.69539198 2768.53049878 -2645.0308492 2763.7808492 -2640.3125 2759.0625 C-2639.62671875 2758.3303125 -2638.9409375 2757.598125 -2638.234375 2756.84375 C-2615.56966518 2733.03765192 -2582.28424727 2713.6010267 -2551.3125 2703.0625 C-2550.3225 2703.0625 -2549.3325 2703.0625 -2548.3125 2703.0625 C-2548.3125 2702.4025 -2548.3125 2701.7425 -2548.3125 2701.0625 C-2550.03533203 2700.93488281 -2550.03533203 2700.93488281 -2551.79296875 2700.8046875 C-2559.20844656 2699.97064466 -2566.40450123 2698.01197767 -2573.625 2696.1875 C-2574.40783356 2695.99097839 -2575.19066711 2695.79445679 -2575.9972229 2695.59197998 C-2593.23847093 2691.24573919 -2610.22618048 2686.16883378 -2627.15808105 2680.75134277 C-2629.2610239 2680.0789587 -2631.36525848 2679.41075662 -2633.46972656 2678.74316406 C-2691.98862978 2660.12216108 -2749.41518415 2635.45825513 -2803.3125 2606.0625 C-2804.29057617 2605.52963379 -2805.26865234 2604.99676758 -2806.27636719 2604.44775391 C-2849.45704054 2580.84470262 -2891.51440927 2555.05428984 -2931.3125 2526.0625 C-2932.4267334 2525.25256592 -2932.4267334 2525.25256592 -2933.56347656 2524.42626953 C-2944.94117933 2516.13906618 -2956.18133323 2507.67766086 -2967.3125 2499.0625 C-2967.91368652 2498.59779297 -2968.51487305 2498.13308594 -2969.13427734 2497.65429688 C-2986.63095255 2484.10156434 -3003.69309539 2469.94524978 -3020.0859375 2455.07421875 C-3022.14354391 2453.21515331 -3024.22096763 2451.38321642 -3026.3125 2449.5625 C-3042.20585475 2435.69136136 -3057.3995627 2421.14365821 -3072.29492188 2406.21044922 C-3074.8334885 2403.66646672 -3077.3774333 2401.12794872 -3079.921875 2398.58984375 C-3081.56282112 2396.9482376 -3083.20345744 2395.30632169 -3084.84375 2393.6640625 C-3085.5917688 2392.91806793 -3086.3397876 2392.17207336 -3087.11047363 2391.4034729 C-3091.15324507 2387.34279942 -3095.03402312 2383.19696892 -3098.76541138 2378.84770203 C-3101.31919322 2375.90086598 -3104.01208821 2373.08594468 -3106.6875 2370.25 C-3111.38954204 2365.23040697 -3115.83251928 2360.08236603 -3120.1328125 2354.7109375 C-3122.4592082 2351.88424165 -3124.8942193 2349.19191098 -3127.375 2346.5 C-3131.14357947 2342.39566383 -3134.70392646 2338.20176132 -3138.14453125 2333.8203125 C-3139.73159554 2331.80145234 -3141.3310741 2329.79829724 -3142.94921875 2327.8046875 C-3151.35202168 2317.43317065 -3159.37998358 2306.79674101 -3167.3125 2296.0625 C-3167.84955566 2295.33756348 -3168.38661133 2294.61262695 -3168.93994141 2293.86572266 C-3179.50101701 2279.56780479 -3189.39451511 2264.80919375 -3199.3125 2250.0625 C-3199.83473145 2249.28745117 -3200.35696289 2248.51240234 -3200.89501953 2247.71386719 C-3227.61310592 2208.03470837 -3253.09247247 2167.36352512 -3276.04199219 2125.37695312 C-3277.35252057 2122.9895955 -3278.67969954 2120.61198898 -3280.0078125 2118.234375 C-3320.61215184 2044.98346726 -3352.52230829 1966.93776644 -3374.3125 1886.0625 C-3374.50201233 1885.36243835 -3374.69152466 1884.66237671 -3374.88677979 1883.94110107 C-3391.46866621 1822.55484721 -3401.19471969 1759.47598643 -3406.0625 1696.125 C-3406.12166595 1695.35631592 -3406.18083191 1694.58763184 -3406.24179077 1693.7956543 C-3406.58185745 1689.30543936 -3406.89156243 1684.81408263 -3407.17175293 1680.31973267 C-3407.26422097 1678.8367754 -3407.35959086 1677.35399568 -3407.45812988 1675.87142944 C-3408.60174234 1658.28826707 -3408.53409598 1640.66878142 -3408.55273438 1623.05639648 C-3408.55710066 1619.5383863 -3408.57094938 1616.0206239 -3408.59375 1612.50268555 C-3408.73756885 1589.82365015 -3408.00290971 1567.59279894 -3405.3125 1545.0625 C-3405.21007996 1544.17529266 -3405.10765991 1543.28808533 -3405.00213623 1542.37399292 C-3404.45904251 1537.71470988 -3403.82733739 1533.07596293 -3403.125 1528.4375 C-3403.02434235 1527.76368286 -3402.92368469 1527.08986572 -3402.81997681 1526.39562988 C-3393.30137916 1463.20641626 -3373.94961943 1401.3406989 -3346.54003906 1343.65722656 C-3345.35975568 1341.16238731 -3344.20361019 1338.65784662 -3343.0546875 1336.1484375 C-3325.26364287 1297.51372931 -3302.12062788 1260.83469628 -3276.3125 1227.0625 C-3275.8273291 1226.42570312 -3275.3421582 1225.78890625 -3274.84228516 1225.1328125 C-3265.89546782 1213.43811022 -3256.32559801 1202.27634312 -3246.41796875 1191.38671875 C-3245.07304319 1189.90206066 -3243.74088175 1188.40567157 -3242.42578125 1186.89453125 C-3237.10279293 1180.81858584 -3231.45158656 1175.09463994 -3225.75 1169.375 C-3224.94643066 1168.56683838 -3224.14286133 1167.75867676 -3223.31494141 1166.92602539 C-3219.01943119 1162.64152479 -3214.64810063 1158.51338873 -3210.0480957 1154.55737305 C-3207.88175499 1152.69149822 -3205.78766306 1150.75228697 -3203.6875 1148.8125 C-3198.07043262 1143.7520018 -3192.17665989 1139.09996573 -3186.18212891 1134.49951172 C-3184.9494894 1133.55209514 -3183.71991211 1132.60067916 -3182.49365234 1131.64501953 C-3149.18824696 1105.69726722 -3111.37018636 1084.54758836 -3071.3125 1071.0625 C-3069.7651416 1070.54115479 -3069.7651416 1070.54115479 -3068.18652344 1070.00927734 C-3031.70780363 1057.90360619 -2994.28835998 1051.83878154 -2955.875 1051.8125 C-2954.97987701 1051.81182526 -2954.08475403 1051.81115051 -2953.1625061 1051.81045532 C-2878.36228777 1051.89923749 -2803.7564125 1074.46700002 -2745.3125 1122.0625 C-2743.81783203 1123.25166016 -2743.81783203 1123.25166016 -2742.29296875 1124.46484375 C-2733.86798972 1131.32585021 -2726.19416173 1138.96949746 -2718.5 1146.625 C-2717.96411255 1147.15562042 -2717.4282251 1147.68624084 -2716.87609863 1148.23294067 C-2709.88468114 1155.17121439 -2703.40096022 1162.30151062 -2697.3125 1170.0625 C-2696.46884888 1171.11715454 -2696.46884888 1171.11715454 -2695.6081543 1172.19311523 C-2670.41271236 1203.81053846 -2650.94004373 1240.05134421 -2637.3125 1278.0625 C-2636.9093457 1279.18430664 -2636.50619141 1280.30611328 -2636.09082031 1281.46191406 C-2613.66977205 1344.58897002 -2613.66977205 1344.58897002 -2614.3125 1372.0625 C-2616.48327469 1370.01709039 -2618.10946347 1367.99608116 -2619.66796875 1365.45703125 C-2620.11720703 1364.73306152 -2620.56644531 1364.0090918 -2621.02929688 1363.26318359 C-2621.51462891 1362.47508301 -2621.99996094 1361.68698242 -2622.5 1360.875 C-2641.83803603 1329.88718199 -2662.92403312 1300.1301624 -2686.3125 1272.0625 C-2686.80137695 1271.47452637 -2687.29025391 1270.88655273 -2687.79394531 1270.28076172 C-2701.3632647 1254.02745087 -2715.87433774 1237.68976091 -2732.0546875 1223.98046875 C-2733.91497942 1222.40018617 -2735.74586247 1220.7968822 -2737.5703125 1219.17578125 C-2746.46947477 1211.30211999 -2755.66478024 1203.99716688 -2765.3125 1197.0625 C-2765.95268066 1196.60133789 -2766.59286133 1196.14017578 -2767.25244141 1195.66503906 C-2804.33992064 1167.5550021 -2804.33992064 1167.5550021 -2846.3125 1153.0625 C-2846.17150879 1153.6201001 -2846.03051758 1154.1777002 -2845.88525391 1154.75219727 C-2845.22747932 1157.37440678 -2844.58251966 1159.99962504 -2843.9375 1162.625 C-2843.71578125 1163.50091797 -2843.4940625 1164.37683594 -2843.265625 1165.27929688 C-2840.0635886 1178.41706386 -2838.97762925 1191.28808829 -2839.05175781 1204.75097656 C-2839.06249216 1207.06081367 -2839.05178066 1209.36987347 -2839.0390625 1211.6796875 C-2839.03138569 1221.30640989 -2839.77332676 1230.55398561 -2841.3125 1240.0625 C-2845.73067983 1236.52795614 -2849.53862469 1232.78201977 -2853.3125 1228.5625 C-2863.04365786 1217.7289911 -2873.92722254 1208.11718124 -2885.3125 1199.0625 C-2886.37021788 1198.18045381 -2887.42611367 1197.29621943 -2888.48046875 1196.41015625 C-2909.91511823 1178.57484698 -2933.46778742 1164.37229295 -2959.3125 1154.0625 C-2959.08175781 1154.56885986 -2958.85101562 1155.07521973 -2958.61328125 1155.59692383 C-2943.473722 1188.8792701 -2929.13196672 1222.51166442 -2924.3125 1259.0625 C-2924.18230469 1259.99578125 -2924.05210937 1260.9290625 -2923.91796875 1261.890625 C-2923.06710389 1268.92444118 -2923.2207627 1275.9885347 -2923.3125 1283.0625 C-2927.08122672 1281.51878814 -2929.24283616 1279.20626829 -2932 1276.25 C-2959.87127612 1247.53050932 -3008.43196674 1220.71912671 -3049.26171875 1219.9921875 C-3050.26847656 1220.01539063 -3051.27523437 1220.03859375 -3052.3125 1220.0625 C-3051.52746094 1220.8359375 -3050.74242188 1221.609375 -3049.93359375 1222.40625 C-3044.16363934 1228.11549709 -3038.550497 1233.85575517 -3033.3125 1240.0625 C-3032.51714844 1240.96871094 -3031.72179688 1241.87492187 -3030.90234375 1242.80859375 C-3006.09317938 1271.24392316 -2978.3125 1311.697244 -2978.3125 1351.0625 C-2982.14478863 1349.71602021 -2985.39733994 1347.86053803 -2988.82958984 1345.73730469 C-3023.41125236 1324.41314772 -3066.68683623 1314.42484384 -3106.65136719 1323.66674805 C-3107.19954102 1323.79734619 -3107.74771484 1323.92794434 -3108.3125 1324.0625 C-3107.73508057 1324.41852295 -3107.15766113 1324.7745459 -3106.56274414 1325.14135742 C-3093.61421856 1333.16028685 -3081.14253677 1341.46122272 -3069.3125 1351.0625 C-3068.41724609 1351.78421387 -3068.41724609 1351.78421387 -3067.50390625 1352.52050781 C-3052.50302808 1364.70663323 -3038.60911392 1378.349937 -3027.3125 1394.0625 C-3026.89452148 1394.63081543 -3026.47654297 1395.19913086 -3026.04589844 1395.78466797 C-3016.63839861 1408.66853861 -3003.3125 1428.59704873 -3003.3125 1445.0625 C-3007.88869112 1444.42672383 -3012.00488239 1443.23427759 -3016.375 1441.75 C-3029.81008258 1437.38216347 -3044.17934633 1434.53889844 -3058.3125 1434.0625 C-3059.84390625 1433.98515625 -3059.84390625 1433.98515625 -3061.40625 1433.90625 C-3086.34559994 1433.20701589 -3110.75897636 1439.86475828 -3131.3125 1454.0625 C-3130.55332275 1454.35382813 -3129.79414551 1454.64515625 -3129.01196289 1454.9453125 C-3092.77678954 1468.89436009 -3059.62337856 1485.46451005 -3030.69140625 1511.90625 C-3028.53739491 1513.85865436 -3026.34222274 1515.74527359 -3024.125 1517.625 C-3020.11655905 1521.13935877 -3016.6962773 1524.94951549 -3013.3125 1529.0625 C-3012.59876221 1529.92367432 -3012.59876221 1529.92367432 -3011.87060547 1530.80224609 C-3010.23825412 1532.77777643 -3008.61759177 1534.76237089 -3007 1536.75 C-3006.47180664 1537.39195313 -3005.94361328 1538.03390625 -3005.39941406 1538.6953125 C-3004.90022461 1539.31535156 -3004.40103516 1539.93539063 -3003.88671875 1540.57421875 C-3003.43901123 1541.12553467 -3002.99130371 1541.67685059 -3002.5300293 1542.24487305 C-3001.08019589 1544.40930251 -3000.20930732 1546.623612 -2999.3125 1549.0625 C-3000.29307373 1549.04678955 -3001.27364746 1549.0310791 -3002.28393555 1549.01489258 C-3034.35399004 1548.54728096 -3063.70619323 1549.97247234 -3092.3125 1566.0625 C-3093.29476562 1566.59359375 -3094.27703125 1567.1246875 -3095.2890625 1567.671875 C-3109.68868051 1576.05436157 -3120.03226592 1589.28913622 -3127.3125 1604.0625 C-3126.49910156 1604.12719482 -3125.68570313 1604.19188965 -3124.84765625 1604.25854492 C-3107.02830117 1605.71801825 -3089.70593185 1607.7314991 -3072.3125 1612.0625 C-3071.54341309 1612.25038086 -3070.77432617 1612.43826172 -3069.98193359 1612.63183594 C-3040.12886322 1620.1034275 -3012.41829847 1635.74253363 -2990.3125 1657.0625 C-2989.75836426 1657.59617187 -2989.20422852 1658.12984375 -2988.63330078 1658.6796875 C-2986.80926972 1660.44440447 -2984.99623068 1662.21961091 -2983.1875 1664 C-2982.60589111 1664.568396 -2982.02428223 1665.13679199 -2981.42504883 1665.72241211 C-2980.0144911 1667.13041948 -2978.65818666 1668.59236896 -2977.3125 1670.0625 C-2977.3125 1670.7225 -2977.3125 1671.3825 -2977.3125 1672.0625 C-2978.32896606 1672.3553186 -2978.32896606 1672.3553186 -2979.3659668 1672.65405273 C-3012.92299078 1682.41192945 -3042.77828998 1695.7237118 -3068.3125 1720.0625 C-3068.89773438 1720.58457031 -3069.48296875 1721.10664062 -3070.0859375 1721.64453125 C-3084.68487078 1735.18110084 -3093.91329622 1754.14640842 -3099.3125 1773.0625 C-3098.79155762 1772.85157715 -3098.27061523 1772.6406543 -3097.73388672 1772.42333984 C-3054.75792327 1755.17117242 -3005.67554601 1746.53765958 -2961.3125 1764.0625 C-2952.78063589 1767.72140724 -2943.31244425 1771.89891272 -2936.3125 1778.0625 C-2935.9825 1779.0525 -2935.6525 1780.0425 -2935.3125 1781.0625 C-2936.74916016 1781.82820313 -2936.74916016 1781.82820313 -2938.21484375 1782.609375 C-2952.96799968 1790.61057878 -2966.60666049 1800.09110842 -2979.3125 1811.0625 C-2980.49972656 1812.0834375 -2980.49972656 1812.0834375 -2981.7109375 1813.125 C-3014.45244229 1841.94600098 -3039.19676005 1878.69902439 -3042.0625 1923.25 C-3042.34247815 1927.66179214 -3042.41989859 1931.74196763 -3041.3125 1936.0625 C-3040.82265625 1935.69640625 -3040.3328125 1935.3303125 -3039.828125 1934.953125 C-3006.14283105 1910.56032593 -2966.14539308 1893.27524774 -2924.3125 1891.0625 C-2923.23355469 1891.00320313 -2922.15460937 1890.94390625 -2921.04296875 1890.8828125 C-2902.19578365 1890.41872313 -2882.4564066 1894.17365866 -2865.3125 1902.0625 C-2865.3125 1903.0525 -2865.3125 1904.0425 -2865.3125 1905.0625 C-2867.3830908 1906.7371092 -2869.41754019 1908.21443742 -2871.625 1909.6875 C-2872.92255308 1910.58438154 -2874.21810543 1911.48416399 -2875.51171875 1912.38671875 C-2876.15802246 1912.83708496 -2876.80432617 1913.28745117 -2877.47021484 1913.75146484 C-2896.31477897 1927.16192195 -2914.36451417 1944.73530162 -2928.06542969 1963.37109375 C-2929.29851234 1965.04352848 -2930.55729604 1966.69385476 -2931.8203125 1968.34375 C-2952.83521005 1996.23901373 -2968.21809186 2033.60531949 -2963.3125 2069.0625 C-2962.71900757 2068.48302612 -2962.71900757 2068.48302612 -2962.11352539 2067.8918457 C-2925.72039364 2032.56281011 -2878.31919539 2003.71922298 -2826.3125 2002.0625 C-2825.19617187 2002.02253906 -2824.07984375 2001.98257812 -2822.9296875 2001.94140625 C-2808.27545802 2001.67694563 -2792.37213856 2002.65508979 -2778.3125 2007.0625 C-2777.9825 2007.7225 -2777.6525 2008.3825 -2777.3125 2009.0625 C-2777.89515625 2009.51238281 -2778.4778125 2009.96226563 -2779.078125 2010.42578125 C-2793.93648178 2022.08351715 -2807.65729927 2035.18785571 -2819.3125 2050.0625 C-2820.09109375 2051.02414063 -2820.8696875 2051.98578125 -2821.671875 2052.9765625 C-2832.71445118 2066.86770133 -2841.88740931 2081.95569951 -2849.3125 2098.0625 C-2849.85519531 2099.22007812 -2850.39789062 2100.37765625 -2850.95703125 2101.5703125 C-2861.03439445 2123.97012236 -2863.91301465 2145.67544603 -2863.3125 2170.0625 C-2862.08116333 2168.81545288 -2862.08116333 2168.81545288 -2860.82495117 2167.54321289 C-2857.73081642 2164.41243545 -2854.6297039 2161.28864496 -2851.52661133 2158.16674805 C-2850.19336598 2156.82354471 -2848.86193254 2155.47854004 -2847.5324707 2154.1315918 C-2839.78672486 2146.28665373 -2832.04449049 2138.8160732 -2823.3125 2132.0625 C-2822.59698975 2131.49313721 -2821.88147949 2130.92377441 -2821.14428711 2130.3371582 C-2781.6397308 2098.94952024 -2735.80770392 2076.97606902 -2684.3125 2080.0625 C-2682.30449544 2080.34362064 -2680.29684646 2080.64599042 -2678.3125 2081.0625 C-2679.65055643 2084.15032253 -2681.4531766 2086.58119364 -2683.58569336 2089.17016602 C-2718.92386269 2132.10313786 -2749.43875959 2191.00915935 -2745.3125 2248.0625 C-2744.9825 2248.7225 -2744.6525 2249.3825 -2744.3125 2250.0625 C-2743.99200684 2249.57595947 -2743.67151367 2249.08941895 -2743.34130859 2248.58813477 C-2735.75752943 2237.13735254 -2727.72462185 2226.34369464 -2718.83740234 2215.87548828 C-2716.80162208 2213.45510656 -2714.84206615 2210.97636283 -2712.875 2208.5 C-2701.65995845 2194.77412826 -2688.95703965 2181.38791822 -2675.3125 2170.0625 C-2674.7959082 2169.63211426 -2674.27931641 2169.20172852 -2673.74707031 2168.75830078 C-2664.65977052 2161.22466903 -2655.31474245 2154.33215873 -2645.3125 2148.0625 C-2644.20648437 2147.36382813 -2643.10046875 2146.66515625 -2641.9609375 2145.9453125 C-2622.11143177 2133.99842029 -2599.57770385 2126.63342862 -2576.3125 2127.0625 C-2576.82296875 2128.10921875 -2577.3334375 2129.1559375 -2577.859375 2130.234375 C-2602.96461773 2182.19064765 -2624.80460083 2239.45609528 -2623.3125 2298.0625 C-2623.01706299 2297.58119629 -2622.72162598 2297.09989258 -2622.41723633 2296.60400391 C-2608.49853497 2274.02115793 -2592.82898954 2252.97277013 -2575.3125 2233.0625 C-2574.09240234 2231.67224609 -2574.09240234 2231.67224609 -2572.84765625 2230.25390625 C-2566.7137542 2223.42230918 -2560.27563298 2216.89377622 -2553.8125 2210.375 C-2552.94633057 2209.49577881 -2552.08016113 2208.61655762 -2551.18774414 2207.71069336 C-2545.2107637 2201.72583737 -2538.93726819 2196.31561729 -2532.3125 2191.0625 C-2531.14347723 2190.10936422 -2529.97532996 2189.15515215 -2528.80859375 2188.19921875 C-2514.90621871 2177.06666556 -2500.09468876 2167.32189769 -2484.3125 2159.0625 C-2483.68150391 2158.72798828 -2483.05050781 2158.39347656 -2482.40039062 2158.04882812 C-2469.14468365 2151.11694466 -2451.33725337 2142.0625 -2436.3125 2142.0625 C-2436.95152686 2146.13733359 -2438.23092218 2149.86995653 -2439.5847168 2153.74755859 C-2458.25568976 2207.3450542 -2465.89074498 2272.30970576 -2443.3125 2326.0625 C-2441.20991535 2322.90862303 -2440.16470145 2320.10948334 -2438.9140625 2316.53515625 C-2438.43668954 2315.18602386 -2437.95880218 2313.8370734 -2437.48046875 2312.48828125 C-2437.10414307 2311.422146 -2437.10414307 2311.422146 -2436.72021484 2310.33447266 C-2427.81713956 2285.20258515 -2417.20920449 2260.92640183 -2405.3125 2237.0625 C-2404.88759277 2236.20865723 -2404.46268555 2235.35481445 -2404.02490234 2234.47509766 C-2391.90005886 2210.30710801 -2377.25352447 2187.32721138 -2359.3125 2167.0625 C-2358.5184375 2166.15757812 -2357.724375 2165.25265625 -2356.90625 2164.3203125 C-2354.73548762 2161.87448776 -2352.53350708 2159.46268776 -2350.3125 2157.0625 C-2349.73886719 2156.423125 -2349.16523438 2155.78375 -2348.57421875 2155.125 C-2338.55770085 2144.46440445 -2325.72807952 2134.96535499 -2312.3125 2129.0625 C-2311.6525 2129.0625 -2310.9925 2129.0625 -2310.3125 2129.0625 C-2310.29791748 2129.65337402 -2310.28333496 2130.24424805 -2310.26831055 2130.85302734 C-2308.70503904 2188.44549621 -2295.42900806 2248.04201707 -2252.13842773 2289.10400391 C-2247.758628 2293.18142332 -2243.33306761 2296.77328285 -2238.3125 2300.0625 C-2238.32138245 2299.4497522 -2238.33026489 2298.83700439 -2238.3394165 2298.20568848 C-2239.3544168 2224.66137668 -2232.67827591 2151.1266617 -2197.3125 2085.0625 C-2196.96364746 2084.4034668 -2196.61479492 2083.74443359 -2196.25537109 2083.06542969 C-2182.44304017 2057.12777008 -2182.44304017 2057.12777008 -2176.3125 2054.0625 C-2176.06512085 2055.04754517 -2176.06512085 2055.04754517 -2175.81274414 2056.05249023 C-2161.80435565 2111.26821065 -2136.53562594 2171.34748657 -2085.40576172 2201.90087891 C-2080.79731629 2204.45825975 -2076.04542828 2206.74626226 -2071.3125 2209.0625 C-2071.58811768 2208.3317627 -2071.86373535 2207.60102539 -2072.14770508 2206.84814453 C-2098.29950244 2137.22862048 -2124.75623584 2056.32983533 -2115.3125 1981.0625 C-2111.44084217 1982.84750162 -2109.32954676 1985.02927166 -2106.5 1988.25 C-2097.39829142 1998.4317591 -2087.80099073 2008.30199816 -2077.3125 2017.0625 C-2076.43335937 2017.83078125 -2075.55421875 2018.5990625 -2074.6484375 2019.390625 C-2041.20225426 2048.49583941 -1994.85553648 2081.8790445 -1948.3125 2081.0625 C-1949.49392578 2080.08023438 -1949.49392578 2080.08023438 -1950.69921875 2079.078125 C-1958.23522027 2072.77747609 -1965.52694589 2066.26958903 -1972.70068359 2059.56103516 C-1974.27641475 2058.09604911 -1975.86402195 2056.64537948 -1977.45703125 2055.19921875 C-1983.67540845 2049.54309049 -1989.73194985 2043.74529536 -1995.6875 2037.8125 C-1996.34145752 2037.16313477 -1996.99541504 2036.51376953 -1997.66918945 2035.84472656 C-2001.47057785 2032.03123337 -2005.07487979 2028.10207509 -2008.59326172 2024.02685547 C-2011.3712342 2020.85281875 -2014.28626767 2017.81091824 -2017.1875 2014.75 C-2022.12774937 2009.5010668 -2026.81281253 2004.16022457 -2031.3125 1998.52734375 C-2033.20401029 1996.19620509 -2035.16732325 1993.96975066 -2037.1875 1991.75 C-2041.5036379 1986.94765685 -2045.44178812 1981.87990477 -2049.40234375 1976.78515625 C-2051.78215589 1973.72699766 -2054.20750057 1970.70915976 -2056.6484375 1967.69970703 C-2088.09441488 1928.8393838 -2115.59562964 1885.9476427 -2138.90283203 1841.73486328 C-2140.19497379 1839.28529907 -2141.49923195 1836.84273323 -2142.80859375 1834.40234375 C-2175.3125 1773.58280261 -2175.3125 1773.58280261 -2175.3125 1765.0625 C-2171.0467164 1766.54521661 -2167.6042444 1768.80484261 -2163.9375 1771.375 C-2154.61882933 1777.74307428 -2144.78765887 1783.17997899 -2134.91113281 1788.62597656 C-2132.77375536 1789.80751818 -2130.64649198 1791.0039875 -2128.5234375 1792.2109375 C-2089.04473591 1814.12300372 -2040.24416953 1833.89885812 -1994.3125 1830.0625 C-1993.6525 1829.7325 -1992.9925 1829.4025 -1992.3125 1829.0625 C-1993.34246094 1828.34707031 -1994.37242188 1827.63164063 -1995.43359375 1826.89453125 C-2013.89736231 1814.00402869 -2031.44289883 1800.13166962 -2048.58154297 1785.53466797 C-2050.38598818 1783.99999877 -2052.19487519 1782.47066579 -2054.00390625 1780.94140625 C-2064.79219149 1771.79305415 -2064.79219149 1771.79305415 -2069.64624023 1766.7277832 C-2071.264772 1765.11020003 -2072.94231181 1763.64625887 -2074.69140625 1762.171875 C-2080.26049111 1757.32888763 -2085.43348623 1752.09105589 -2090.63989258 1746.86547852 C-2092.371447 1745.128564 -2094.10828359 1743.39706111 -2095.84570312 1741.66601562 C-2101.01048244 1736.50433547 -2106.1016983 1731.33733606 -2110.8425293 1725.77758789 C-2113.20464625 1723.02158863 -2115.70494925 1720.3970521 -2118.1875 1717.75 C-2122.59476211 1713.00750684 -2126.80314391 1708.16200345 -2130.85546875 1703.109375 C-2132.71195546 1700.80721342 -2134.58745624 1698.53067659 -2136.48828125 1696.265625 C-2145.21368015 1685.84348375 -2153.37831885 1675.09659071 -2161.3125 1664.0625 C-2161.83054199 1663.34594238 -2162.34858398 1662.62938477 -2162.88232422 1661.89111328 C-2216.50028512 1587.60448772 -2252.42065249 1502.98785647 -2266.75 1412.4375 C-2266.9262793 1411.33438477 -2267.10255859 1410.23126953 -2267.28417969 1409.09472656 C-2267.43661133 1408.08120117 -2267.58904297 1407.06767578 -2267.74609375 1406.0234375 C-2267.88072021 1405.13446777 -2268.01534668 1404.24549805 -2268.15405273 1403.32958984 C-2268.3125 1401.0625 -2268.3125 1401.0625 -2267.3125 1398.0625 C-2265.83231967 1399.97839103 -2264.35319347 1401.89507652 -2262.875 1403.8125 C-2262.4205249 1404.40160156 -2261.9660498 1404.99070312 -2261.49780273 1405.59765625 C-2258.58016911 1409.38839845 -2255.71551459 1413.2133969 -2252.875 1417.0625 C-2248.7917587 1422.52842618 -2244.44816004 1427.71995301 -2240.0078125 1432.89453125 C-2237.50403987 1435.81737884 -2235.09281251 1438.80795459 -2232.6875 1441.8125 C-2229.17147869 1446.13846194 -2225.4164219 1450.06586883 -2221.42578125 1453.953125 C-2219.47354942 1455.90174827 -2217.66549104 1457.90340628 -2215.875 1460 C-2209.91223658 1466.92895194 -2203.36518677 1473.29942627 -2196.41796875 1479.234375 C-2193.95522972 1481.3727087 -2191.57762657 1483.59334599 -2189.1875 1485.8125 C-2182.83281797 1491.59186102 -2176.16479173 1496.88703246 -2169.3125 1502.0625 C-2168.63300293 1502.5771582 -2167.95350586 1503.09181641 -2167.25341797 1503.62207031 C-2143.60575481 1521.41602982 -2105.58488363 1549.01702398 -2074.3125 1547.0625 C-2075.24191406 1546.1446875 -2076.17132812 1545.226875 -2077.12890625 1544.28125 C-2083.41541041 1538.05086016 -2089.61195519 1531.83954254 -2095.3125 1525.0625 C-2096.2096028 1524.02748747 -2097.10818275 1522.99375438 -2098.0078125 1521.9609375 C-2104.56455108 1514.41262964 -2110.84475401 1506.69412873 -2116.96679688 1498.79052734 C-2118.2850213 1497.0977856 -2119.61624402 1495.41631445 -2120.953125 1493.73828125 C-2174.44755878 1426.53085728 -2215.83907141 1349.44232025 -2258.3125 1172.0625 C-2258.415625 1171.01400879 -2258.51875 1169.96551758 -2258.625 1168.88525391 C-2259.63531824 1157.01221044 -2259.55623855 1145.095083 -2259.5625 1133.1875 C-2259.56351212 1131.45557404 -2259.56351212 1131.45557404 -2259.56454468 1129.68865967 C-2259.53611152 1098.97712791 -2256.42132992 1069.16833243 -2250.3125 1039.0625 C-2248.3125 1040.0625 -2248.3125 1040.0625 -2247.25024414 1042.68505859 C-2246.86989014 1043.84859863 -2246.48953613 1045.01213867 -2246.09765625 1046.2109375 C-2245.66039751 1047.5261219 -2245.22288619 1048.84122235 -2244.78515625 1050.15625 C-2244.55586426 1050.85363281 -2244.32657227 1051.55101562 -2244.09033203 1052.26953125 C-2221.3398129 1121.21991006 -2182.99330885 1214.15148463 -2114.3125 1249.0625 C-2108.17782145 1251.89825953 -2101.89496367 1254.48705723 -2095.3125 1256.0625 C-2098.34294133 1250.4633399 -2101.40113047 1244.88299311 -2104.546875 1239.34765625 C-2149.18860873 1160.55276732 -2185.39527999 1071.16092246 -2169.47680664 866.19628906 C-2156.20292124 819.36445543 -2137.40785778 771.78237914 -2107.3125 733.0625 C-2106.17129121 736.48612637 -2106.45969442 737.23158208 -2107.5703125 740.54296875 C-2107.86389648 741.44716553 -2108.15748047 742.3513623 -2108.45996094 743.28295898 C-2108.78254883 744.26208252 -2109.10513672 745.24120605 -2109.4375 746.25 C-2115.71289224 766.1372258 -2119.2605238 786.32991421 -2121.3125 807.0625 C-2121.40893799 808.00561035 -2121.50537598 808.9487207 -2121.60473633 809.92041016 C-2122.4570821 819.36072778 -2122.49862961 828.79019128 -2122.49780273 838.26123047 C-2122.49997434 841.0297825 -2122.51815392 843.79792503 -2122.53710938 846.56640625 C-2122.58973482 863.05418813 -2121.47067057 879.44917238 -2118.5 895.6875 C-2118.32823242 896.63858643 -2118.15646484 897.58967285 -2117.97949219 898.56958008 C-2112.80353565 926.31742935 -2103.53123328 957.04424908 -2081.3125 976.0625 C-2080.3225 976.5575 -2080.3225 976.5575 -2079.3125 977.0625 C-2079.31916183 976.16303146 -2079.32582367 975.26356293 -2079.33268738 974.33683777 C-2079.39388032 965.6799611 -2079.43900607 957.02316134 -2079.46793652 948.36611462 C-2079.48331175 943.92000478 -2079.50400309 939.47407966 -2079.53881836 935.02807617 C-2079.72023433 911.19571971 -2078.8901583 887.7624832 -2076.3125 864.0625 C-2076.15519913 862.59709274 -2076.15519913 862.59709274 -2075.99472046 861.1020813 C-2075.4399875 856.05305502 -2074.7883374 851.02724706 -2074.0625 846 C-2073.96023102 845.27987732 -2073.85796204 844.55975464 -2073.75259399 843.81781006 C-2064.11385756 776.40209708 -2042.83661665 707.97846993 -2006.3125 650.0625 C-2005.88549805 649.38010254 -2005.45849609 648.69770508 -2005.01855469 647.99462891 C-1986.14767048 617.95399814 -1964.07125444 590.81820587 -1939.0625 565.6875 C-1938.4130542 565.03338135 -1937.7636084 564.3792627 -1937.09448242 563.70532227 C-1932.66410371 559.28957084 -1928.0628511 555.13037868 -1923.3125 551.0625 C-1922.77157715 550.59457031 -1922.2306543 550.12664063 -1921.67333984 549.64453125 C-1897.24263099 528.54563737 -1870.56414787 510.62788229 -1842.3125 495.0625 C-1841.43416504 494.57668457 -1840.55583008 494.09086914 -1839.65087891 493.59033203 C-1827.37827214 486.8542396 -1814.8182426 480.92044764 -1802 475.3125 C-1801.2820224 474.99782776 -1800.5640448 474.68315552 -1799.8243103 474.35894775 C-1787.69872716 469.0625 -1787.69872716 469.0625 -1785.3125 469.0625 C-1786.61864691 471.82461097 -1788.07027364 474.23909428 -1789.89453125 476.6875 C-1790.40741699 477.38294922 -1790.92030273 478.07839844 -1791.44873047 478.79492188 C-1792.00189941 479.54322266 -1792.55506836 480.29152344 -1793.125 481.0625 C-1806.16641986 498.96405378 -1817.49012787 517.74945632 -1828.3125 537.0625 C-1829.01004395 538.29637451 -1829.01004395 538.29637451 -1829.72167969 539.55517578 C-1853.53548456 581.93862328 -1872.10391591 632.02891071 -1871.3125 681.0625 C-1870.79417603 680.12289429 -1870.79417603 680.12289429 -1870.26538086 679.16430664 C-1853.74805799 649.2867866 -1836.53970568 619.60739784 -1816.3125 592.0625 C-1815.06217824 590.3072598 -1813.81936661 588.54684216 -1812.57641602 586.78637695 C-1801.55107427 571.20352482 -1789.5750834 556.33015845 -1777.1875 541.8125 C-1776.75775879 541.30726807 -1776.32801758 540.80203613 -1775.88525391 540.28149414 C-1767.05301894 530.01179268 -1757.69864659 520.26204929 -1748.12402344 510.6887207 C-1746.30894443 508.87144012 -1744.50206093 507.04626167 -1742.6953125 505.22070312 C-1735.87281085 498.36575815 -1728.90573376 492.0639894 -1721.3125 486.0625 C-1720.22219214 485.13968827 -1719.13757506 484.21004511 -1718.0625 483.26953125 C-1683.01394034 452.75139621 -1641.16433567 429.18748694 -1597.3125 414.0625 C-1595.7970459 413.5368042 -1595.7970459 413.5368042 -1594.25097656 413.00048828 C-1573.24357034 405.79310706 -1551.98158905 400.797266 -1530.0625 397.3125 C-1528.82169678 397.11374268 -1527.58089355 396.91498535 -1526.30249023 396.71020508 C-1505.54658261 393.56234494 -1484.97783618 392.68921299 -1464 392.75 C-1462.72591278 392.75149048 -1461.45182556 392.75298096 -1460.13912964 392.7545166 C-1440.35283543 392.79606132 -1420.94034108 393.45349872 -1401.3125 396.0625 C-1400.01699219 396.22830566 -1398.72148438 396.39411133 -1397.38671875 396.56494141 C-1391.33374682 397.34513083 -1385.28688472 398.17519106 -1379.25390625 399.09765625 C-1378.34326416 399.2356665 -1377.43262207 399.37367676 -1376.49438477 399.51586914 C-1374.3125 400.0625 -1374.3125 400.0625 -1372.3125 402.0625 C-1379.39451932 406.93416404 -1386.71485746 411.33614641 -1394.125 415.6875 C-1395.93324747 416.75398138 -1397.74084529 417.82155831 -1399.5484314 418.88916016 C-1401.34657804 419.95107325 -1403.14519846 421.01218059 -1404.94384766 422.07324219 C-1435.8757753 440.3391754 -1466.38470507 459.12403217 -1493.3125 483.0625 C-1494.13306885 483.78832275 -1494.13306885 483.78832275 -1494.97021484 484.52880859 C-1501.17241402 490.03467248 -1507.06413911 495.62132982 -1512.3125 502.0625 C-1513.21338093 503.12774012 -1514.11443888 504.19283055 -1515.015625 505.2578125 C-1534.85693766 529.03050071 -1546.8828645 556.4955309 -1555.3125 586.0625 C-1554.85625244 585.7315332 -1554.40000488 585.40056641 -1553.92993164 585.05957031 C-1471.96412526 525.63768348 -1382.59335152 474.06039749 -1274.3125 456.0625 C-1273.0740332 455.86640137 -1271.83556641 455.67030273 -1270.55957031 455.46826172 C-1192.7726317 443.63868874 -1111.15381382 454.77923214 -1040.3125 489.0625 C-1038.60039201 489.87267398 -1036.88815724 490.68258011 -1035.17578125 491.4921875 C-1015.78321976 500.79229255 -997.57219478 512.2561878 -980.3125 525.0625 C-979.72823242 525.4951416 -979.14396484 525.9277832 -978.54199219 526.37353516 C-971.82839491 531.37510748 -965.35657523 536.62799518 -959.00415039 542.078125 C-954.78854809 545.69242306 -950.45454103 549.13035098 -946.04296875 552.50390625 C-945.47191406 553.01824219 -944.90085937 553.53257812 -944.3125 554.0625 C-944.3125 554.7225 -944.3125 555.3825 -944.3125 556.0625 C-945.24707031 555.82015625 -946.18164062 555.5778125 -947.14453125 555.328125 C-951.52523538 554.20379334 -955.9162418 553.12425831 -960.3125 552.0625 C-961.06096191 551.88106445 -961.80942383 551.69962891 -962.58056641 551.51269531 C-1020.36949782 537.75163552 -1082.08406699 551.33694924 -1132.3125 582.0625 C-1148.8664933 592.3447588 -1163.54881697 604.27650954 -1177.3125 618.0625 C-1177.98410156 618.68769531 -1178.65570312 619.31289063 -1179.34765625 619.95703125 C-1186.7673984 626.97647903 -1194.70178209 635.84106417 -1199.3125 645.0625 C-1198.78333984 644.89234375 -1198.25417969 644.7221875 -1197.70898438 644.546875 C-1157.19428886 631.62615786 -1115.50804357 623.14555908 -1073.3125 618.0625 C-1072.29068634 617.93714874 -1072.29068634 617.93714874 -1071.24822998 617.80926514 C-1030.98160472 612.91414468 -988.48709352 612.20722015 -948.3125 618.0625 C-947.26239746 618.20703613 -946.21229492 618.35157227 -945.13037109 618.50048828 C-897.72736406 625.13588052 -850.36541051 641.39180205 -815.3125 675.0625 C-814.82749023 675.51641113 -814.34248047 675.97032227 -813.84277344 676.43798828 C-786.6114437 701.98324626 -767.38191403 736.81873696 -749.3125 769.0625 C-748.97895508 769.65722107 -748.64541016 770.25194214 -748.30175781 770.86468506 C-745.9495685 775.06436495 -743.62505085 779.27835961 -741.3125 783.5 C-740.69439453 784.61407227 -740.07628906 785.72814453 -739.43945312 786.87597656 C-738.60317383 788.42043457 -738.60317383 788.42043457 -737.75 789.99609375 C-737.25371094 790.90415771 -736.75742188 791.81222168 -736.24609375 792.74780273 C-735.3125 795.0625 -735.3125 795.0625 -736.3125 798.0625 C-736.94003174 797.72105957 -737.56756348 797.37961914 -738.21411133 797.02783203 C-745.57315839 793.02623708 -752.94076183 789.04066092 -760.3125 785.0625 C-761.1487793 784.60987793 -761.98505859 784.15725586 -762.84667969 783.69091797 C-786.67063565 770.82598175 -810.88106927 759.38814358 -836.3125 750.0625 C-837.2499707 749.71606445 -838.18744141 749.36962891 -839.15332031 749.01269531 C-881.02840782 733.72545172 -929.08063994 726.18812355 -971.3125 744.0625 C-977.92797171 747.2017489 -984.41552791 750.72480447 -990.125 755.33203125 C-992.3125 757.0625 -992.3125 757.0625 -994.3125 757.0625 C-994.3125 757.7225 -994.3125 758.3825 -994.3125 759.0625 C-993.58289062 759.09843262 -992.85328125 759.13436523 -992.1015625 759.17138672 C-982.34755403 759.77499126 -972.90470332 761.38126879 -963.3125 763.1875 C-962.48301849 763.342117 -961.65353699 763.49673401 -960.79891968 763.65603638 C-894.75854719 776.00931549 -829.14193991 797.78774177 -775.3125 839.0625 C-774.41273438 839.74828125 -773.51296875 840.4340625 -772.5859375 841.140625 C-766.82737718 845.63778639 -761.46161817 850.50726283 -756.1171875 855.48046875 C-753.89004065 857.53080868 -751.63354125 859.49687837 -749.3125 861.4375 C-731.20609362 877.21968858 -716.33077489 898.42381511 -704.3125 919.0625 C-703.90418945 919.7548877 -703.49587891 920.44727539 -703.07519531 921.16064453 C-682.48555979 956.31870637 -663.3125 1004.49795626 -663.3125 1046.0625 C-663.9725 1046.0625 -664.6325 1046.0625 -665.3125 1046.0625 C-666.83559113 1043.96786352 -668.23868082 1041.87090503 -669.625 1039.6875 C-696.3151133 998.6961114 -728.5199383 961.13047252 -770.3125 935.0625 C-771.21307129 934.49885742 -771.21307129 934.49885742 -772.13183594 933.92382812 C-790.61738859 922.53443797 -812.83479025 912.83274885 -834.3125 909.0625 C-833.31283203 910.15304687 -833.31283203 910.15304687 -832.29296875 911.265625 C-828.36848958 915.546875 -824.44401042 919.828125 -820.51953125 924.109375 C-820.07182373 924.59776855 -819.62411621 925.08616211 -819.1628418 925.58935547 C-818.25669569 926.57790828 -817.35060921 927.56651576 -816.44458008 928.55517578 C-814.12850143 931.0823307 -811.81135617 933.60849276 -809.4921875 936.1328125 C-800.64149097 945.76883737 -791.89898729 955.47343693 -783.4140625 965.43359375 C-781.40293558 967.79335803 -779.37758055 970.13925365 -777.3359375 972.47265625 C-770.19751996 980.65526034 -763.50780099 989.11529448 -757.00097656 997.80761719 C-755.86564702 999.32379759 -754.72691322 1000.83743423 -753.58496094 1002.34863281 C-719.73759703 1047.15717543 -697.28619263 1096.05500304 -678.63018799 1148.72218323 C-655.47065671 1214.07360427 -631.54623986 1281.10415146 -585.3125 1334.0625 C-584.87228516 1334.5673291 -584.43207031 1335.0721582 -583.97851562 1335.59228516 C-578.7558896 1341.54678142 -573.40351717 1347.00872126 -567.3125 1352.0625 C-566.4771875 1352.79726562 -565.641875 1353.53203125 -564.78125 1354.2890625 C-531.57957447 1383.02128171 -480.06702332 1408.0625 -435.3125 1408.0625 C-436.983125 1407.08023437 -436.983125 1407.08023437 -438.6875 1406.078125 C-449.42581926 1399.68824414 -459.50872808 1392.80473109 -469.3125 1385.0625 C-469.99086914 1384.52834473 -470.66923828 1383.99418945 -471.36816406 1383.44384766 C-484.31300104 1373.20421991 -496.27859076 1362.17483969 -508 1350.5625 C-508.87938232 1349.69625 -509.75876465 1348.83 -510.66479492 1347.9375 C-516.65041699 1341.95919325 -522.03462843 1335.66764108 -527.3125 1329.0625 C-528.18764698 1328.02325373 -529.06775862 1326.9881226 -529.95703125 1325.9609375 C-546.6334309 1306.55020926 -559.93524339 1284.37407734 -572.3125 1262.0625 C-572.73354004 1261.31371582 -573.15458008 1260.56493164 -573.58837891 1259.79345703 C-616.27876878 1183.57658296 -634.01230902 1093.5470809 -644.75 997.1875 C-644.83399048 996.38479675 -644.91798096 995.58209351 -645.0045166 994.75506592 C-645.88970435 986.17426886 -646.52187458 977.69936429 -646.3125 969.0625 C-641.25823728 973.29124533 -636.53813967 977.71423438 -631.91015625 982.40234375 C-630.88806313 983.43011681 -630.88806313 983.43011681 -629.84532166 984.47865295 C-626.96082015 987.37933645 -624.08234634 990.28597383 -621.20336914 993.19213867 C-619.08691453 995.32681997 -616.96735374 997.45838328 -614.84765625 999.58984375 C-614.21094498 1000.23485336 -613.5742337 1000.87986298 -612.91822815 1001.54441833 C-609.10051752 1005.38255235 -605.16470017 1009.02039012 -601.06080627 1012.55134583 C-598.71431091 1014.57954667 -596.45569514 1016.69746273 -594.1875 1018.8125 C-588.38109966 1024.10562738 -582.27343411 1028.93782866 -576.04589844 1033.72314453 C-574.40794306 1034.98875343 -572.78412877 1036.27020666 -571.1640625 1037.55859375 C-553.39719937 1051.54384495 -533.95526019 1062.95480664 -514.3125 1074.0625 C-515.97082787 1070.11682335 -518.6597403 1067.12842977 -521.4375 1063.9375 C-522.4450451 1062.76390833 -523.45154984 1061.58942273 -524.45703125 1060.4140625 C-524.94896973 1059.83946289 -525.4409082 1059.26486328 -525.94775391 1058.67285156 C-527.71639693 1056.58591608 -529.4265091 1054.45679871 -531.125 1052.3125 C-534.7785959 1047.70415785 -538.50780803 1043.16139462 -542.25 1038.625 C-542.86262695 1037.8822583 -543.47525391 1037.1395166 -544.10644531 1036.37426758 C-545.30365267 1034.92296626 -546.50091649 1033.47171151 -547.69824219 1032.02050781 C-550.47062694 1028.65775437 -553.23292347 1025.28687013 -555.98828125 1021.91015625 C-557.75283896 1019.74820235 -559.52170332 1017.59003824 -561.29296875 1015.43359375 C-568.02745528 1007.21400903 -574.57252878 998.8745213 -580.99609375 990.41015625 C-583.81028991 986.7066507 -586.67011706 983.04110754 -589.54272461 979.3828125 C-610.67308961 952.42549211 -630.32295752 923.8173507 -647.3125 894.0625 C-648.07410964 892.74863466 -648.83582639 891.43483141 -649.59765625 890.12109375 C-689.78968161 820.24717844 -714.41498679 742.97562581 -716.3125 662.0625 C-716.34537109 660.89340088 -716.34537109 660.89340088 -716.37890625 659.70068359 C-718.00617495 595.4371305 -703.05290656 531.68225401 -677.3125 473.0625 C-676.69375 471.64565918 -676.69375 471.64565918 -676.0625 470.20019531 C-663.68092727 441.98375184 -648.74750971 414.50767753 -631.55517578 388.91552734 C-630.30505761 387.05140221 -629.07077418 385.17762136 -627.83984375 383.30078125 C-610.6379543 357.15022755 -591.82491837 332.04892279 -572.00463867 307.83276367 C-568.46043096 303.49842177 -564.99552975 299.11018853 -561.5625 294.6875 C-557.74121185 289.77695657 -553.74269068 285.10857974 -549.52734375 280.52734375 C-545.62070093 276.17973948 -541.97460088 271.61631812 -538.3125 267.0625 C-537.05325607 270.8402318 -537.77352267 272.1375028 -539.05078125 275.87109375 C-539.65515015 277.67525757 -539.65515015 277.67525757 -540.27172852 279.51586914 C-540.49176544 280.16234406 -540.71180237 280.80881897 -540.93850708 281.47488403 C-568.78892608 363.63207248 -593.32797785 461.25683321 -555.3125 593.0625 C-554.78414551 594.27969727 -554.78414551 594.27969727 -554.24511719 595.52148438 C-544.51764808 617.64433041 -531.88884238 638.79486206 -517.3125 658.0625 C-516.62728271 658.97080566 -516.62728271 658.97080566 -515.92822266 659.89746094 C-509.07763784 668.91662861 -501.79040124 677.55952662 -494.3125 686.0625 C-493.51070312 686.97773437 -492.70890625 687.89296875 -491.8828125 688.8359375 C-485.53474885 695.91412987 -478.83549494 702.64314201 -472.125 709.375 C-471.65137024 709.85130859 -471.17774048 710.32761719 -470.6897583 710.81835938 C-465.07589664 716.4562794 -459.39788535 721.93515887 -453.3125 727.0625 C-452.73733643 727.54871826 -452.16217285 728.03493652 -451.56958008 728.53588867 C-449.98923431 729.86386159 -448.40258736 731.18371595 -446.8125 732.5 C-446.008125 733.16805664 -446.008125 733.16805664 -445.1875 733.84960938 C-443.89661008 734.92150904 -442.60467428 735.99214897 -441.3125 737.0625 C-445.14239707 729.19994659 -449.07679717 721.42716146 -453.35449219 713.79736328 C-496.40159292 636.742188 -521.55213124 549.24482038 -500.34765625 339.890625 C-487.65282896 296.45659009 -469.38048704 254.2054635 -443.3125 217.0625 C-442.74716553 216.25256592 -442.74716553 216.25256592 -442.17041016 215.42626953 C-430.4651212 198.69029702 -417.83630894 182.88469959 -403.94140625 167.9140625 C-401.46275851 165.22548472 -399.04169315 162.49416958 -396.625 159.75 C-393.39538674 156.14751843 -390.02898176 152.94563651 -386.33203125 149.83203125 C-384.10619402 147.88173286 -382.06290244 145.80902844 -380 143.6875 C-375.97332035 139.61263786 -371.70573123 136.00163106 -367.234375 132.42578125 C-364.73658677 130.40551136 -362.29936788 128.33244827 -359.87451172 126.22583008 C-346.57107635 114.72099921 -332.11963178 104.53287272 -317.3125 95.0625 C-316.55308105 94.57458984 -315.79366211 94.08667969 -315.01123047 93.58398438 C-301.14137042 84.7147846 -286.8990997 76.68860091 -272.3125 69.0625 C-270.87680664 68.30670654 -270.87680664 68.30670654 -269.41210938 67.53564453 C-196.86198499 29.54202963 -115.47819958 9.16316479 -34.3125 1.0625 C-33.28584229 0.95574951 -32.25918457 0.84899902 -31.20141602 0.73901367 C-20.81681875 -0.21294257 -10.41709862 -0.04788847 0 0 Z M280.6875 403.0625 C272.81771175 412.53664422 269.34869196 423.80894264 269.6875 436.0625 C271.55625985 452.23446022 278.70275109 464.54462572 291.02734375 475.05859375 C312.58982675 491.16767006 341.51535668 495.34073561 367.6875 492.0625 C384.47172413 489.31015007 401.15876685 482.84903495 412.12890625 469.30078125 C420.52331975 457.24564607 424.55044216 442.34421744 422.0625 427.75 C418.34869397 412.76582427 407.20789416 402.20966998 394.60693359 394.20849609 C360.1159824 373.61570483 309.69933271 372.8962172 280.6875 403.0625 Z M-241.3125 512.0625 C-242.51022595 517.72436861 -242.4736021 523.28087567 -242.48046875 529.0390625 C-242.48470352 530.10938721 -242.48893829 531.17971191 -242.49330139 532.2824707 C-242.50319252 535.75085364 -242.50322192 539.21910545 -242.5 542.6875 C-242.49939575 543.86721375 -242.4987915 545.04692749 -242.49816895 546.26239014 C-243.04111051 616.21582136 -243.04111051 616.21582136 -213.33984375 677.1953125 C-204.3580714 685.46754214 -194.18308067 687.70362539 -182.16796875 687.40234375 C-164.17538897 685.81637167 -148.23747218 675.94371709 -134.3125 665.0625 C-133.31476562 664.2890625 -132.31703125 663.515625 -131.2890625 662.71875 C-123.96186517 656.76657942 -117.2593426 650.21020864 -110.5625 643.5625 C-109.687146 642.6964917 -108.81179199 641.8304834 -107.90991211 640.93823242 C-101.95420862 634.9532432 -96.57415442 628.66006716 -91.3125 622.0625 C-90.2156623 620.73414556 -89.11575596 619.40831426 -88.01171875 618.0859375 C-75.48500539 603.37820173 -75.48500539 603.37820173 -65.3125 587.0625 C-66.64626989 587.45685985 -67.97946613 587.85315933 -69.3125 588.25 C-70.22257812 588.52070312 -71.13265625 588.79140625 -72.0703125 589.0703125 C-74.42933133 589.79222911 -76.77382376 590.53527722 -79.1171875 591.3046875 C-79.78878906 591.52229736 -80.46039062 591.73990723 -81.15234375 591.96411133 C-82.46188726 592.38936736 -83.76938757 592.82099551 -85.07421875 593.26049805 C-96.15112194 596.83200973 -107.30141177 597.47286711 -118.875 597.4375 C-119.57837494 597.43662384 -120.28174988 597.43574768 -121.00643921 597.43484497 C-132.50728701 597.38772171 -143.29130088 596.5171648 -154.3125 593.0625 C-155.08271484 592.82644043 -155.85292969 592.59038086 -156.64648438 592.34716797 C-189.74738438 581.90382055 -216.90683543 559.63202756 -233.328125 529.03125 C-236.14383007 523.56073728 -238.32836456 517.88528944 -240.3125 512.0625 C-240.6425 512.0625 -240.9725 512.0625 -241.3125 512.0625 Z M-597.3125 1562.0625 C-596.73992004 1577.0126599 -595.66335585 1591.86265727 -594.1875 1606.75 C-594.0802359 1607.83877441 -593.9729718 1608.92754883 -593.86245728 1610.04931641 C-588.62460968 1662.70860379 -579.94532649 1714.67557265 -567.3125 1766.0625 C-567.14983643 1766.72882446 -566.98717285 1767.39514893 -566.81958008 1768.08166504 C-549.28116147 1839.83918762 -521.63466174 1912.58318096 -470.3125 1967.0625 C-469.54550781 1967.89523437 -468.77851563 1968.72796875 -467.98828125 1969.5859375 C-440.94027888 1997.96567513 -397.88539497 2017.22078558 -358.6015625 2018.30078125 C-329.32508996 2018.72239603 -303.90944037 2013.3739809 -281.87646484 1992.62207031 C-249.72508391 1960.56103045 -243.16342102 1909.6058759 -243.06430054 1866.44271851 C-243.06370636 1865.4509964 -243.06311218 1864.45927429 -243.0625 1863.4375 C-243.06182526 1862.42217194 -243.06115051 1861.40684387 -243.06045532 1860.36074829 C-243.07993789 1841.7847559 -243.9913984 1823.49201318 -246.3125 1805.0625 C-246.39735657 1804.38866272 -246.48221313 1803.71482544 -246.56964111 1803.02056885 C-251.91082578 1761.22241955 -261.18799857 1719.78365259 -275.3125 1680.0625 C-278.558113 1681.48324324 -280.6751159 1683.20012681 -283.140625 1685.73046875 C-283.85863281 1686.45943359 -284.57664062 1687.18839844 -285.31640625 1687.93945312 C-286.42822266 1689.08317383 -286.42822266 1689.08317383 -287.5625 1690.25 C-292.9569137 1695.77376465 -298.42505758 1701.06565053 -304.3125 1706.0625 C-304.94929688 1706.61107666 -305.58609375 1707.15965332 -306.2421875 1707.72485352 C-326.26242387 1724.8969489 -348.41529407 1740.56839943 -374.3125 1747.0625 C-375.44300781 1747.37960937 -376.57351562 1747.69671875 -377.73828125 1748.0234375 C-410.55253298 1755.8414778 -445.10323522 1748.49593662 -473.64453125 1731.40234375 C-479.54432518 1727.71979768 -484.97207947 1723.5062495 -490.3125 1719.0625 C-490.90337402 1718.57313965 -491.49424805 1718.0837793 -492.10302734 1717.57958984 C-501.96081495 1709.37476107 -510.94177778 1700.98731156 -518.98046875 1690.94921875 C-520.49558433 1689.07372392 -522.03870826 1687.22039433 -523.61328125 1685.39453125 C-554.81349055 1649.19003306 -575.33273954 1604.57046533 -596.3125 1562.0625 C-596.6425 1562.0625 -596.9725 1562.0625 -597.3125 1562.0625 Z M484.6875 1965.0625 C484.69416183 1965.74756622 484.70082367 1966.43263245 484.70768738 1967.13845825 C485.39534925 2041.26588259 485.39534925 2041.26588259 477.09887695 2077.90307617 C476.59393119 2080.18729037 476.59393119 2080.18729037 476.6875 2083.0625 C489.08130379 2081.42788415 499.32146256 2077.43407401 508.6875 2069.0625 C509.31398438 2068.51722656 509.94046875 2067.97195312 510.5859375 2067.41015625 C515.40761161 2062.93589534 518.60247395 2057.83795575 521.6875 2052.0625 C522.0690625 2051.37671875 522.450625 2050.6909375 522.84375 2049.984375 C529.89958524 2035.97961111 530.17845484 2019.10282687 526 2004.25 C520.76660063 1989.11052326 511.98733537 1977.58470979 497.6875 1970.0625 C491.42093732 1966.70370173 491.42093732 1966.70370173 484.6875 1965.0625 Z M236.6875 2787.0625 C236.50743408 2788.10869507 236.50743408 2788.10869507 236.32373047 2789.17602539 C229.61544439 2827.74393733 219.52138508 2865.58202107 196.6875 2898.0625 C196.08035156 2898.9277832 196.08035156 2898.9277832 195.4609375 2899.81054688 C187.70763033 2910.64810989 178.24773526 2919.83065049 168.6875 2929.0625 C191.97008587 2948.98002463 227.30723147 2960.48656893 256.6875 2967.0625 C257.73679687 2967.30742187 258.78609375 2967.55234375 259.8671875 2967.8046875 C282.15783815 2972.12091428 305.13973605 2969.90393393 324.6875 2958.0625 C342.7389745 2945.84014748 353.21728452 2925.0299393 357.6875 2904.0625 C361.24017396 2882.65043803 356.20454394 2862.59139208 343.81640625 2844.8671875 C340.37240778 2840.32995648 336.62922134 2836.169562 332.6875 2832.0625 C331.93984375 2831.25167969 331.1921875 2830.44085937 330.421875 2829.60546875 C309.49577299 2807.60534495 273.47681653 2787.84528119 242.54150391 2787.00415039 C240.59007572 2787.00051684 238.63864158 2787.02885963 236.6875 2787.0625 Z M-82.3125 2789.0625 C-75.66088382 2818.48611982 -63.13174739 2849.63079329 -36.6875 2866.5625 C-29.55133425 2870.68862427 -22.72921471 2874.09613163 -14.3125 2873.0625 C-3.46651163 2870.06558216 3.23510717 2863.79505078 8.95703125 2854.2890625 C14.4912757 2843.97013266 20.81629826 2831.95977889 20.6875 2820.0625 C19.7488208 2819.83699463 18.8101416 2819.61148926 17.84301758 2819.37915039 C-13.07499025 2811.92339453 -43.13688638 2802.64820233 -73.15405273 2792.15649414 C-76.19942098 2791.10166728 -79.25291105 2790.07524788 -82.3125 2789.0625 Z " fill="#FFC70B" transform="translate(3408.3125,-0.0625)"/>
</svg>
